<?xml version="1.0" encoding="utf-8"?>
<!-- Generator: Adobe Illustrator 21.1.0, SVG Export Plug-In . SVG Version: 6.00 Build 0)  -->
<svg version="1.1" xmlns="http://www.w3.org/2000/svg" xmlns:xlink="http://www.w3.org/1999/xlink" x="0px" y="0px"
	 viewBox="0 0 48 42" style="enable-background:new 0 0 48 42;" xml:space="preserve">
<g id="Capa_1">
	<g>
		<path style="fill:#F4F4F4;" d="M13.2,25.3l4.1,5c0.4,0.4,0.9,0.7,1.4,0.7c5.9-0.1,12.2-2.3,17.6-6.7C43,18.9,46.7,11.3,47,4.2
			c0-1.3-0.9-2.5-2.2-2.7c-7-1.2-15.2,0.9-21.9,6.3c-5.4,4.4-8.8,10.1-10.1,15.9C12.7,24.3,12.8,24.9,13.2,25.3z"/>
		<path style="fill:#AEAEAE;" d="M20,31.1c2,2.5,1.9,6-0.2,8.3c-0.3,0.3-0.3,0.8,0,1.1l0.1,0.1c0.3,0.3,0.7,0.4,1.1,0.2
			c1-0.5,2-1.2,2.9-1.9c3.4-2.8,5.5-6.6,6.1-10.7c-3.3,1.5-6.7,2.4-10,2.6C20,31,20,31.1,20,31.1z"/>
		<path style="fill:#ACACAC;" d="M13,22.4C11,20,7.5,19.4,4.8,21c-0.4,0.2-0.9,0.1-1.1-0.2l-0.1-0.1c-0.3-0.3-0.3-0.8,0-1.1
			c0.7-0.9,1.5-1.7,2.4-2.4c3.4-2.8,7.6-4,11.7-3.8c-2.2,2.9-3.7,6.1-4.6,9.3C13.1,22.5,13,22.5,13,22.4z"/>
		<path style="fill:#AEAEAE;" d="M44.8,1.5c-3.1-0.5-6.4-0.4-9.6,0.3l9.5,11.7c1.4-3.1,2.2-6.3,2.3-9.4C47,2.9,46.1,1.8,44.8,1.5z"
			/>
		<path style="fill:#E5E6E7;" d="M36.6,2.8c-0.1-0.1-0.1-0.2-0.1-0.3c0-0.1,0.1-0.2,0.1-0.2c0.1-0.1,0.2-0.1,0.3-0.1
			c0.2,0,0.3,0.2,0.3,0.4c0,0.1-0.1,0.2-0.1,0.2C37.1,3,37,3,36.9,3C36.8,3,36.7,2.9,36.6,2.8z"/>
		<path style="fill:#E5E6E7;" d="M37.9,3.9c0.2-0.1,0.4-0.1,0.5,0.1l0,0c0.1,0.2,0.1,0.4-0.1,0.5l0,0c-0.2,0.1-0.4,0.1-0.5-0.1l0,0
			C37.7,4.2,37.8,4,37.9,3.9z"/>
		<path style="fill:#E5E6E7;" d="M42.9,10c0.2-0.1,0.4-0.1,0.5,0.1l0,0c0.1,0.2,0.1,0.4-0.1,0.5l0,0c-0.2,0.1-0.4,0.1-0.5-0.1l0,0
			C42.7,10.4,42.8,10.1,42.9,10z M41.7,8.5c0.2-0.1,0.4-0.1,0.5,0.1l0,0c0.1,0.2,0.1,0.4-0.1,0.5l0,0C42,9.2,41.7,9.1,41.6,9l0,0
			C41.5,8.8,41.5,8.6,41.7,8.5z M40.4,7c0.2-0.1,0.4-0.1,0.5,0.1l0,0c0.1,0.2,0.1,0.4-0.1,0.5l0,0c-0.2,0.1-0.4,0.1-0.5-0.1l0,0
			C40.2,7.3,40.3,7.1,40.4,7z M39.2,5.4c0.2-0.1,0.4-0.1,0.5,0.1l0,0c0.1,0.2,0.1,0.4-0.1,0.5l0,0c-0.2,0.1-0.4,0.1-0.5-0.1l0,0
			C39,5.8,39,5.5,39.2,5.4z"/>
		<path style="fill:#E5E6E7;" d="M44.1,12.1C44.1,12,44,11.9,44,11.8c0-0.1,0.1-0.2,0.1-0.2c0.1-0.1,0.2-0.1,0.3-0.1
			c0.2,0,0.3,0.2,0.3,0.4c0,0.1-0.1,0.2-0.1,0.2c-0.1,0.1-0.2,0.1-0.3,0.1C44.3,12.2,44.2,12.1,44.1,12.1z"/>
		<path style="fill:#E5E6E7;" d="M34.9,1.9l9.7,11.9c0-0.1,0.1-0.2,0.1-0.3L35.2,1.9C35.1,1.9,35,1.9,34.9,1.9z"/>
		<path style="fill:#E5E6E7;" d="M16.8,13.3c-2,2.7-3.5,5.6-4.5,8.5c0.2,0.2,0.4,0.4,0.6,0.7c0,0,0.1,0.1,0.1,0.1
			c0.9-3.2,2.4-6.4,4.6-9.3C17.4,13.3,17.1,13.3,16.8,13.3z"/>
		<path style="fill:#E5E6E7;" d="M30,28.3c-3.3,1.5-6.7,2.4-10,2.6c0,0,0.1,0.1,0.1,0.1c0.2,0.2,0.4,0.5,0.5,0.7
			c3.1-0.3,6.2-1.2,9.2-2.6C29.8,28.9,29.9,28.6,30,28.3z"/>
		<g>
			<path style="fill:#AEAEAE;" d="M14.3,35.4C9.8,39,1,39.4,1,39.4s2.2-8.6,6.6-12.2c2.3-1.8,4.9-0.9,6.7,1.3
				C16.2,30.8,16.5,33.5,14.3,35.4z"/>
			<path style="fill:#D0D0D0;" d="M13.9,34.3c-1.8,1.5-5.6,2.1-7.1,0.3c-1.5-1.8-0.1-5.4,1.7-6.8c1.8-1.5,3.8-0.7,5.3,1.2
				C15.4,30.7,15.8,32.8,13.9,34.3z"/>
			<path style="fill:#F4F4F4;" d="M13.8,32.2c-1.1,0.9-3.3,1.3-4.2,0.2c-0.9-1.1,0-3.2,1-4.1c1.1-0.9,2-0.2,2.9,0.9
				C14.3,30.3,14.9,31.3,13.8,32.2z"/>
		</g>
		<g>
			<g>
				<path style="fill:#ACACAC;" d="M12.8,23.8c-0.1,0.5,0,1.1,0.4,1.6l4.1,5c0.4,0.4,0.9,0.7,1.4,0.7c0.4,0,0.8,0,1.2,0l-6.8-8.4
					C13,23,12.9,23.4,12.8,23.8z"/>
			</g>
			<g>
				<path style="fill:#E5E6E7;" d="M13.7,23.3L12.8,24c0,0.1,0,0.2,0,0.2l1-0.8L13.7,23.3z"/>
				<path style="fill:#E5E6E7;" d="M14.3,24l-1.3,1c0,0.1,0.1,0.1,0.1,0.2l1.3-1L14.3,24z"/>
				
					<rect x="13.5" y="25.3" transform="matrix(0.7757 -0.6311 0.6311 0.7757 -12.8118 14.7308)" style="fill:#E5E6E7;" width="1.7" height="0.2"/>
				
					<rect x="14.1" y="26.1" transform="matrix(0.7757 -0.6311 0.6311 0.7757 -13.1535 15.2926)" style="fill:#E5E6E7;" width="1.7" height="0.2"/>
				
					<rect x="14.7" y="26.8" transform="matrix(0.7757 -0.6311 0.6311 0.7757 -13.4951 15.8543)" style="fill:#E5E6E7;" width="1.7" height="0.2"/>
				
					<rect x="15.4" y="27.6" transform="matrix(0.7757 -0.6311 0.6311 0.7757 -13.8368 16.4159)" style="fill:#E5E6E7;" width="1.7" height="0.2"/>
				
					<rect x="16" y="28.3" transform="matrix(0.7757 -0.6311 0.6311 0.7757 -14.1782 16.9768)" style="fill:#E5E6E7;" width="1.7" height="0.2"/>
				
					<rect x="16.6" y="29.1" transform="matrix(0.7757 -0.6311 0.6311 0.7757 -14.5198 17.5384)" style="fill:#E5E6E7;" width="1.7" height="0.2"/>
				<path style="fill:#E5E6E7;" d="M18.6,29.4l-1.3,1c0,0,0.1,0.1,0.1,0.1l1.3-1L18.6,29.4z"/>
				<path style="fill:#E5E6E7;" d="M19.2,30.1l-1,0.8c0.1,0,0.2,0,0.2,0l0.9-0.7L19.2,30.1z"/>
			</g>
		</g>
		<g>
			<path style="fill:#F4F4F4;" d="M46.4,2.5c0.1,0.2,0.1,0.5-0.1,0.9C44,8,38.9,13.8,32.2,19.3c-5.4,4.4-10.8,7.7-15.3,9.5
				c-0.4,0.2-0.7,0.2-0.9,0l0,0l1.3,1.5c0.4,0.4,0.9,0.7,1.4,0.7c5.9-0.1,12.2-2.3,17.6-6.7C43,18.9,46.7,11.3,47,4.2
				C47,3.6,46.8,2.9,46.4,2.5z"/>
		</g>
	</g>
</g>
<g id="guias">
</g>
</svg>
