<?xml version="1.0" encoding="utf-8"?>
<!-- Generator: Adobe Illustrator 21.0.2, SVG Export Plug-In . SVG Version: 6.00 Build 0)  -->
<svg version="1.1" xmlns="http://www.w3.org/2000/svg" xmlns:xlink="http://www.w3.org/1999/xlink" x="0px" y="0px"
	 viewBox="0 0 576 814" style="enable-background:new 0 0 576 814;" xml:space="preserve">
<g id="Capa_1">
	<g>
		<g>
			<circle style="fill:#A4DBEF;" cx="279" cy="273.9" r="220"/>
			<path style="fill:#D7ECED;" d="M455.6,405.2c-0.2-15.1-11-28.5-26.4-31.6c-15.1-3-29.9,4.9-36.2,18.3c-3.6-3.2-8.1-5.6-13.3-6.6
				c-11.2-2.2-22.1,2.5-28.4,11.1c-1.8-0.7-3.7-1.3-5.7-1.7c-17.3-3.5-34.1,7.8-37.5,25c-3.5,17.3,7.8,34.1,25.1,37.6
				c5.9,1.2,11.8,0.6,17.1-1.3c0,0.1-0.1,0.2-0.1,0.4c-1.7,8.7,0.4,17.2,5.2,23.9C395.7,465.3,430.4,439,455.6,405.2z"/>
			<path style="fill:#D7ECED;" d="M130.9,418.1c12.6,6.7,28.3,1.9,35-10.8c6.7-12.6,1.9-28.3-10.8-35c-2.4-1.2-4.8-2.1-7.3-2.6
				c0.2-0.3,0.4-0.7,0.6-1c7-13.1,2-29.4-11.2-36.4c-7.6-4-16.3-4-23.7-0.8c-1.9-5.4-5.8-10.2-11.3-13.1c-8.4-4.5-18.3-3.3-25.4,2.1
				c-1.8-2.1-4-3.9-6.6-5.2c-2.6-1.4-5.2-2.2-8-2.5c7.1,39.6,24.7,75.6,49.9,104.8c4.1-0.7,8-2.5,11.2-5.3
				C125.6,414.6,128.1,416.6,130.9,418.1z M101.6,372.1c0-0.8-0.1-1.5-0.1-2.3c0.4,0.7,0.8,1.3,1.3,2
				C102.4,371.9,102,372,101.6,372.1z"/>
			<polygon style="fill:#D7ECED;" points="268.9,277.2 240.3,439.2 329,433.9 295.3,275.5 			"/>
			<path style="fill:#D7ECED;" d="M344.8,423.7c2.6-7-0.6-14.8-7.1-18.1c1.8-2,3.2-4.3,4.2-7c4.1-11.2-1.7-23.6-12.9-27.6
				c-11.2-4.1-23.6,1.7-27.6,12.9c-0.5,1.3-0.8,2.5-1,3.8c-0.9-0.5-1.9-0.9-3-1.3c-11.9-4.3-25.1,1.8-29.5,13.8
				c-3.7,10.2,0.2,21.3,8.9,27c-2.6,2.2-4.7,5-6,8.5c-2.7,7.5-0.6,15.6,4.7,20.9c-0.7,1.2-1.3,2.4-1.8,3.8
				c-4.2,11.6,1.8,24.5,13.4,28.7c11.6,4.2,24.4-1.8,28.7-13.4c1.5-4,1.7-8.1,0.9-12c0.1,0,0.2,0.1,0.2,0.1
				c11.1,4,23.4-1.7,27.5-12.8c2.7-7.4,1-15.4-3.7-21.1C342.5,428.1,343.9,426.1,344.8,423.7z"/>
			<path style="fill:#D7ECED;" d="M470.4,321.2c-0.8,1.1-1.5,2.2-2,3.3c-0.7-0.7-1.5-1.5-2.4-2.1c-10-7.5-24.3-5.5-31.9,4.5
				c-6.4,8.6-5.9,20.2,0.6,28.1c-3.1,1.3-5.9,3.4-8.1,6.3c-4.7,6.3-5.1,14.6-1.6,21.1c-1,0.9-1.9,1.9-2.8,3.1
				c-7.3,9.8-5.4,23.7,4.4,31c4.8,3.6,10.6,5,16.1,4.3c26.4-29.4,45-66.1,52.5-106.6C486.6,310.8,476.3,313.4,470.4,321.2z"/>
			<path style="fill:#D7ECED;" d="M259,398.6c1.1-1.6,2-3.4,2.6-5.4c2.9-9.5-1.6-19.2-10-21.7c-7.6-2.3-15.8,2.1-19.4,9.9
				c-7.1-0.2-13.9,4.9-16.3,12.8c-1.9,6.4-0.4,13,3.4,17.2c-3.4,1.3-6.4,4.4-7.6,8.5c-2,6.6,1.1,13.4,7,15.1c0.5,0.2,1,0.3,1.6,0.3
				c0,0,0,0.1,0,0.1c-2.2,7.1,1.2,14.4,7.5,16.3c6.3,1.9,13.1-2.3,15.3-9.4c0.4-1.3,0.6-2.6,0.6-3.8c0.2,0.1,0.3,0.1,0.5,0.2
				c10.1,3.1,21-3.7,24.5-15C271.7,413.3,267.4,402.7,259,398.6z"/>
			<path style="fill:#D7ECED;" d="M230.6,463.7c1.9,0.3,3.9,0.5,5.9,0.4c17.6-0.5,31.5-15.1,31.1-32.8
				c-0.5-17.6-15.1-31.5-32.8-31.1c-6.1,0.2-11.7,2-16.4,5.1c0-0.1,0-0.2,0-0.4c-0.5-16.9-14.5-30.2-31.4-29.8
				c-11.3,0.3-21,6.7-26,15.9c-3-1.5-6.4-2.3-10.1-2.3c-10.7,0.3-19.3,8.5-20.3,18.9c-3.6-1.3-7.4-2-11.4-1.9
				c-4.9,0.1-9.4,1.4-13.5,3.5c25.2,32.2,59.3,57.3,98.5,71.4c0.4,0,0.8,0,1.2,0C216.7,480.5,226.4,473.5,230.6,463.7z"/>
			<path style="fill:#FFFFFF;" d="M449.7,412.6c-2.2-1.8-4.6-3.3-7.3-4.5c-14.1-6.3-30.3-1.9-39.3,9.8c-2.8-4-6.7-7.3-11.4-9.4
				c-10.4-4.7-22.1-2.5-30.2,4.5c-1.6-1.1-3.3-2.1-5.2-2.9c-16.1-7.2-35-0.1-42.2,16c-7.2,16.1-0.1,35,16,42.2
				c5.5,2.5,11.4,3.3,17,2.6c-0.1,0.1-0.1,0.2-0.2,0.3c-1.9,4.2-2.7,8.6-2.7,12.9C386.2,471.1,422.7,445.9,449.7,412.6z"/>
			<path style="fill:#FFFFFF;" d="M139.1,435c0.1-0.1,0.2-0.1,0.3-0.2c14.9-8,20.4-26.6,12.4-41.5c-5.4-9.9-15.4-15.7-26-16
				c0-3.4-0.8-6.8-2.5-10c-5.1-9.4-16.3-13.4-26-9.6c-0.4-3.8-1.6-7.5-3.5-11c-5.6-10.4-16.3-16.2-27.4-16.1
				c13.6,51.1,45.2,95,87.5,124.3c-0.6-2.6-1.6-5.1-2.9-7.5C148.1,442.1,144,437.9,139.1,435z"/>
			<polygon style="fill:#FFFFFF;" points="272.5,307.9 250.3,421.2 319.1,417.4 292.9,306.7 			"/>
			<path style="fill:#FFFFFF;" d="M316.7,479.7c0.1,0,0.2,0.1,0.2,0.1c11.1,4,23.4-1.7,27.5-12.8c2.7-7.4,1-15.4-3.7-21.1
				c1.8-1.6,3.2-3.6,4.1-6c2.6-7-0.6-14.8-7.1-18.1c1.8-2,3.2-4.3,4.2-7c4.1-11.2-1.7-23.6-12.9-27.6c-11.2-4.1-23.6,1.7-27.6,12.9
				c-0.5,1.3-0.8,2.5-1,3.8c-0.9-0.5-1.9-0.9-3-1.3c-11.9-4.3-25.1,1.8-29.5,13.8c-3.7,10.2,0.2,21.3,8.9,27c-2.6,2.2-4.7,5-6,8.5
				c-2.7,7.5-0.6,15.6,4.7,20.9c-0.7,1.2-1.3,2.4-1.8,3.8c-2.2,5.9-1.6,12.2,0.9,17.4c1.4,0,2.9,0.1,4.3,0.1c12.6,0,25-1.1,37.1-3.1
				C317.3,487.1,317.4,483.3,316.7,479.7z"/>
			<path style="fill:#FFFFFF;" d="M487.2,333.1c-10.4,2.6-17.3,12-17.2,22.3c-3.2-0.9-6.8-1.1-10.3-0.2c-7.7,1.9-13.1,8.2-14.5,15.4
				c-1.4,0.1-2.7,0.3-4.1,0.6c-11.9,3-19,15.1-16,26.9c2.6,10.4,12.3,17.2,22.7,16.7c19.8-23.7,34.7-51.7,43.2-82.4
				C489.8,332.6,488.5,332.8,487.2,333.1z"/>
			<path style="fill:#FFFFFF;" d="M263.9,410c0.4-1.9,0.6-3.9,0.5-6c-0.7-9.9-8.4-17.3-17.1-16.7c-7.9,0.6-14,7.6-14.5,16.3
				c-6.7,2.3-11.2,9.6-10.6,17.8c0.5,6.7,4.3,12.3,9.4,14.8c-2.7,2.5-4.4,6.4-4,10.6c0.5,6.9,5.9,12.1,11.9,11.6
				c0.5,0,1.1-0.1,1.6-0.3c0,0,0,0.1,0,0.1c0.5,7.4,6.3,13,12.9,12.5c6.6-0.5,11.4-6.9,10.9-14.3c-0.1-1.3-0.4-2.6-0.8-3.8
				c0.2,0,0.3,0,0.5,0c10.5-0.8,18.3-11,17.4-22.8C281,419.1,273.2,410.7,263.9,410z"/>
			<path style="fill:#FFFFFF;" d="M249.6,490.6c17.6-0.5,31.5-15.1,31.1-32.8c-0.5-17.6-15.1-31.5-32.8-31.1
				c-6.1,0.2-11.7,2-16.4,5.1c0-0.1,0-0.2,0-0.4c-0.5-16.9-14.5-30.2-31.4-29.8c-11.3,0.3-21,6.7-26,15.9c-3-1.5-6.4-2.4-10.1-2.3
				c-10.7,0.3-19.3,8.5-20.3,18.9c-3.6-1.3-7.4-2-11.4-1.9c-1.8,0-3.5,0.3-5.2,0.6c31.3,30,71.5,50.7,116.3,58
				c0.1-0.3,0.3-0.5,0.4-0.8C245.6,490.5,247.6,490.6,249.6,490.6z"/>
			<path style="fill:#FFFFFF;" d="M351,465.4c-6.1,0.2-11.7,2-16.4,5.1c0-0.1,0-0.2,0-0.4c-0.5-16.9-14.5-30.2-31.4-29.8
				c-11.3,0.3-21,6.7-26,15.9c-3-1.5-6.4-2.4-10.1-2.3c-10.7,0.3-19.3,8.5-20.3,18.9c-3.6-1.3-7.4-2-11.4-1.9
				c-9.8,0.3-18.3,5.1-23.8,12.3c21.3,6.8,43.9,10.6,67.5,10.6c33.5,0,65.2-7.5,93.6-20.8C366.8,468.1,359.2,465.2,351,465.4z"/>
			<path style="fill:#FFFFFF;" d="M418.8,165.8c-0.9,0.2-1.7,0.4-2.4,0.8c0-0.5-0.1-1-0.2-1.4c-1.3-6.8-7.9-11.2-14.7-9.9
				c-3.7,0.7-6.8,3.1-8.5,6.1c-2.5-2.6-6.3-3.9-10.1-3.2c-4.7,0.9-8.1,4.6-8.9,9c-1.5-0.3-3-0.2-4.5,0c-5,1-8.7,4.8-9.7,9.5h72.2
				c0-0.7-0.1-1.5-0.2-2.3C430.5,168.5,424.7,164.6,418.8,165.8z M393.8,176c0.1-0.2,0.2-0.3,0.3-0.5c0.2,0.3,0.5,0.6,0.7,0.8
				C394.6,176.2,394.2,176.1,393.8,176z"/>
			<path style="fill:#FFFFFF;" d="M187,213.5c-0.7,0.1-1.3,0.3-1.9,0.6c0-0.4-0.1-0.7-0.2-1.1c-1-5.3-6.2-8.8-11.5-7.7
				c-2.9,0.6-5.3,2.4-6.6,4.8c-2-2-4.9-3-7.9-2.5c-3.6,0.7-6.3,3.6-6.9,7c-1.1-0.2-2.3-0.2-3.5,0c-3.9,0.8-6.8,3.8-7.6,7.4h56.4
				c0-0.6,0-1.2-0.2-1.8C196.1,215.6,191.6,212.6,187,213.5z M167.5,221.4c0.1-0.1,0.2-0.2,0.3-0.4c0.2,0.2,0.4,0.4,0.6,0.6
				C168.1,221.6,167.8,221.5,167.5,221.4z"/>
		</g>
		<g>
			<g>
				<path style="fill:#EF5A2A;" d="M287.6,354.7c8.7-21.8,28.4-49.4,28.1-61.8c-0.3-12.4-14.6-29.6-30.4-29.2
					c-15.7,0.4-29.2,18.1-28.9,30.7C256.7,307,287.6,354.7,287.6,354.7z"/>
				<path style="fill:#F7EB3A;" d="M287.2,338.9c7.1-17.9,23.2-40.4,22.9-50.5c-0.3-10.1-12-24.2-24.8-23.9
					c-12.9,0.3-23.9,14.8-23.6,25.1C262,300,287.2,338.9,287.2,338.9z"/>
				<path style="fill:#FFFFFF;" d="M286.8,321.8c5.5-13.8,17.9-31.1,17.7-38.9c-0.2-7.8-9.2-18.7-19.1-18.4
					c-9.9,0.3-18.4,11.4-18.2,19.4C267.3,291.7,286.8,321.8,286.8,321.8z"/>
			</g>
			<g>
				<path style="fill:#EF5A2A;" d="M261.6,329.6c8.8-12.9,25.6-27.9,27.2-36c1.6-8.1-5.2-21.4-15.5-23.4c-10.3-2-21.6,7.5-23.2,15.7
					C248.5,294.1,261.6,329.6,261.6,329.6z"/>
				<path style="fill:#F7EB3A;" d="M263.6,319.3c7.2-10.5,20.9-22.8,22.3-29.4c1.3-6.6-4.2-17.5-12.6-19.1
					c-8.4-1.7-17.6,6.1-19,12.9C252.9,290.3,263.6,319.3,263.6,319.3z"/>
				<path style="fill:#FFFFFF;" d="M265.8,308.1c5.6-8.1,16.1-17.6,17.1-22.7c1-5.1-3.3-13.5-9.7-14.7c-6.5-1.3-13.6,4.7-14.6,9.9
					C257.6,285.8,265.8,308.1,265.8,308.1z"/>
			</g>
			<g>
				<path style="fill:#EF5A2A;" d="M293.4,303c0-9.9,3.3-23.9,1.2-28.7c-2.1-4.8-10.4-9.3-16.5-6.6c-6.1,2.6-8.6,11.7-6.4,16.6
					C273.7,289.2,293.4,303,293.4,303z"/>
				<path style="fill:#F7EB3A;" d="M290.7,296.9c0-8.1,2.7-19.5,1-23.4c-1.7-3.9-8.5-7.6-13.5-5.4c-5,2.2-7,9.6-5.3,13.6
					C274.7,285.6,290.7,296.9,290.7,296.9z"/>
				<path style="fill:#FFFFFF;" d="M287.8,290.2c0-6.3,2.1-15,0.8-18c-1.3-3-6.6-5.8-10.4-4.2c-3.8,1.7-5.4,7.4-4.1,10.5
					C275.5,281.5,287.8,290.2,287.8,290.2z"/>
			</g>
			<g>
				<path style="fill:#E7AE2E;" d="M363.4,91.4c-43.9,58.2-60.1,7.9-84.4,8.1c-12.7,0.1-22,52.4-84.4-8.1C194.6,44.8,232.4,7,279,7
					C325.6,7,363.4,44.8,363.4,91.4z"/>
				<path style="fill:#E7AE2E;" d="M194.6,91.4c9.3,52.7,34.7,59.1,48.6,114.1c30.1,20.1,27.8,15.4,76.3,4
					c6.9-50.7,43.9-81.2,43.9-118.1C365.7,36.3,201.5,47.1,194.6,91.4z"/>
				<g>
					<path style="fill:none;stroke:#403F41;stroke-width:4.8956;stroke-linecap:round;stroke-miterlimit:10;" d="M240.9,107.4
						c0,0,16,36.7,20.8,50.4c4.8,13.6,5,46.2,5,46.2"/>
					<path style="fill:none;stroke:#403F41;stroke-width:4.8956;stroke-linecap:round;stroke-miterlimit:10;" d="M323,107.4
						c0,0-16,36.7-20.8,50.4c-4.8,13.6-5,46.2-5,46.2"/>
				</g>
				<path style="fill:#A5A7AA;" d="M252.3,231v26c0,8,5.2,14.5,11.6,14.5h34.8c6.4,0,11.6-6.5,11.6-14.5l0-26L252.3,231z"/>
				<path style="fill:#221F1F;" d="M237.8,199.1v42.2c0,8,6.5,14.5,14.5,14.5h58c8,0,14.5-6.5,14.5-14.5v-42.2H237.8z"/>
				<g>
					<path style="fill:none;stroke:#403F41;stroke-width:4.0841;stroke-linecap:round;stroke-miterlimit:10;" d="M265.1,120.9
						c0,6.1-3.8,11.1-8.4,11.1c-4.7,0-8.4-4.9-8.4-11.1c0-6.1,3.8-11,8.4-11C261.3,109.8,265.1,114.8,265.1,120.9z"/>
					<path style="fill:none;stroke:#403F41;stroke-width:4.0841;stroke-linecap:round;stroke-miterlimit:10;" d="M281.9,120.9
						c0,6.1-3.8,11.1-8.4,11.1c-4.6,0-8.4-4.9-8.4-11.1c0-6.1,3.8-11,8.4-11C278.1,109.8,281.9,114.8,281.9,120.9z"/>
					<path style="fill:none;stroke:#403F41;stroke-width:4.0841;stroke-linecap:round;stroke-miterlimit:10;" d="M298.8,120.9
						c0,6.1-3.8,11.1-8.4,11.1c-4.7,0-8.4-4.9-8.4-11.1c0-6.1,3.8-11,8.4-11C295,109.8,298.8,114.8,298.8,120.9z"/>
					<path style="fill:none;stroke:#403F41;stroke-width:4.0841;stroke-linecap:round;stroke-miterlimit:10;" d="M315.6,120.9
						c0,6.1-3.8,11.1-8.4,11.1c-4.7,0-8.4-4.9-8.4-11.1c0-6.1,3.8-11,8.4-11C311.8,109.8,315.6,114.8,315.6,120.9z"/>
				</g>
				<path style="fill:#FCDF39;" d="M252.3,22.5c20.8-15.4,58-2.3,71.8,7.7c19.1,13.9,33.3,44.6,31.1,64.4
					c-2.2,19.8-10.6,30.3-18.4,48.8c-2.8,6.6,9.5-20-5.4-55.9c-11.1-26.7-43.3-33.6-64.6-36C251.7,49.8,231.6,37.8,252.3,22.5z"/>
				<path style="fill:#403F41;" d="M327.7,211.8c0,1.2-0.9,2.1-2,2.1h-89.3c-1.1,0-2-0.9-2-2.1v-3.6c0-1.2,0.9-2.1,2-2.1h89.3
					c1.1,0,2,0.9,2,2.1L327.7,211.8z"/>
				<path style="fill:#403F41;" d="M327.7,224.3c0,1.2-0.9,2.1-2,2.1h-89.3c-1.1,0-2-0.9-2-2.1v-3.6c0-1.2,0.9-2.1,2-2.1l89.3,0
					c1.1,0,2,0.9,2,2.1L327.7,224.3z"/>
				<path style="fill:#403F41;" d="M327.9,236.7c0,1.1-0.9,2.1-2,2.1h-89.3c-1.1,0-2-0.9-2-2.1v-3.6c0-1.2,0.9-2.1,2-2.1l89.3,0
					c1.1,0,2,0.9,2,2.1L327.9,236.7z"/>
			</g>
		</g>
	</g>
	<path style="fill:#666666;" d="M88.8,512.7L88.8,512.7c-4.3-4.3-8.4-8.8-12.3-13.5c-3.9-4.6-7.6-9.4-11.1-14.2c0,0-0.1-0.1-0.1-0.1
		c-9.3-13-14.5-22.3-20.8-33.7c-1.9-3.4-3.9-6.9-6.2-11.1l-0.2-0.2c-4.1-5.3-7.2-9.5-10.7-12.5v0c-4.2-3.6-9.9-6-14.5-6.4
		c-1.7-0.1-3.2,0-4.3,0.4c-1,0.4-1.8,1-2.1,2c-0.3,1-0.2,2.5,0.5,4.5c2,5.1,4.9,10.5,7.7,15.8l0.3,0.6c1.4-3.4-1.1-6.9-3.3-10.1
		c-0.5-0.7-1-1.4-1.4-2.2c0,0-0.1-0.1-0.1-0.1c-0.5-0.7-0.4-1.2-0.3-1.8c0-0.1,0-0.2,0-0.3c0-0.4,0.3-0.8,0.6-0.9l0.1,0l0,0
		c0.9-0.4,2.1-1,3.2,0.4l0,0c2.1,2.8,4.5,6.1,5.7,9.6c1.1,3.5,0.9,7.1-2,10.2c2.4,4.7,6.4,13.9,10.9,24.4c8.9,20.7,20,46.3,25,51.4
		c4.7,4.7,11.1,10.1,17.7,15.6c8.5,7.1,17.2,14.5,22.9,20.8c2.6,2.9,5.5,8.2,8.7,13.8c4,7.1,8.3,15,12.8,19.5l0,0
		c3.9,3.9,17.8,16.2,29.8,26.1c8.6,7.2,16.2,13.1,18,13.7c2.2,0.7,13,8.2,21.6,16.4c5.4,5.1,10.1,10.5,11.3,14.7
		c2.4,7.9,2.5,20.8,1.4,34.8c-1.6,21.1-5.8,44.8-8.4,57.8l0,0l0,0L178.1,813h95.6c0.1-4.4,0.1-9.6,0.2-15.4
		c0.4-41.6,1.2-114.2,5.3-140.7c2.3-14.7,0-26.5-5.5-37.1c-5.5-10.6-14.3-20-24.9-29.5c-15.3-13.7-26.7-18.5-36.3-22.6
		c-6.3-2.7-11.8-5-17.3-9.3h0l-13.5-11.1c9,10.4,20.6,24.1,23.4,30c0.3,0.5,0.1,1.1-0.4,1.3l-1.7,1c-0.5,0.3-1,0.1-1.3-0.3h0
		c-1.9-2.9-3.3-4.4-5.4-6.7c-1.3-1.5-3-3.3-5.4-6.3c-0.1,0-0.1-0.1-0.1-0.1l-17-20.5l0,0c-1.7-1.9-3.5-3.7-5.4-5.5
		c-2.9-2.9-5.8-5.7-8.2-9c-3.5-4.8-10.3-13.5-17-20.7c-4.5-4.8-8.8-9-12.1-10.8c-1.5-0.9-3.1-1.7-4.7-2.4c-0.5-0.2-0.9-0.4-1.4-0.6
		c5.7,6.5,7.7,10.6,8,12.9c0.1,1-0.1,1.8-0.4,2.4c-0.5,0.7-1.1,1-1.8,0.9c-0.8-0.1-1.6-0.6-2-1.5l0,0l0,0c-1.1-2.3-4.3-7.3-7.2-11.3
		c-2.1-2.9-3.9-5.1-4.5-5.2c-3.6-0.3-7.4,0.1-10.3,1.7c-2.2,1.1-4,3-4.9,5.8c0.6,1.1,0.9,2.3,1.2,3.6c0.3,1.3,0.7,2.7,1.3,3.9l0,0
		c2.9,5.3,7.1,10.3,11.1,15.2c0.9,1.1,1.8,2.1,2.2,2.7c0,0,0.1,0.1,0.1,0.1c4.1,5,7.9,10.9,11.7,16.8c3.7,5.8,7.5,11.7,11.5,16.7
		l0,0c2.2,2.6,4.5,5.1,6.8,7.7c4.1,4.6,8.1,9.2,11.8,14c1.2,1.5,4.9,7.5,7.8,12.5c2.4,4.1,4.2,7.7,3.7,8.4c-0.7,1.2-1.6,1.3-2.9,0.6
		c-2.8-1.6-7.5-9.5-10.9-15.1c-1.5-2.5-2.8-4.6-3.3-5.3c0,0,0-0.1-0.1-0.1c-2.7-3.3-5.5-6.4-8.2-9.5c-7.3-8.3-14.5-16.4-20.2-26.5
		c-4.7-8.3-9-13.5-14.6-20.2c-1-1.2-2.1-2.5-3.1-3.7l0,0c-3.4-4.1-8-10.3-9.9-16.4c-2-6.3-1-12.5,7-16.1c3.7-1.7,7.6-2.2,11.5-1.9
		c3.5,0.2,7,1.1,10.3,2.4c-3.3-6.8-3.2-16.5-3.1-26.4c0.1-12.5,0.3-25.4-6.6-32.6c-0.7-0.7-1.3-1.3-2.1-1.8
		c-0.4-0.2-0.7-0.5-1.1-0.6c-0.1,1.6-0.3,3.3-0.4,5.2c-1.3,15-3.4,40.1,4.1,48.5l0,0c0.8,0.9,0.9,1.9,0.6,2.8l0,0.1
		c-0.4,0.9-1.3,1.5-2.4,1.4h0c-1,0-2.2-0.5-3.3-1.8c-2.6-2.9-5.3-10.1-5.1-25.9c0-1.4,0-2.6,0.1-3.9c0.1-9.4,0.2-17.6,1.6-27.4
		c-0.1-0.1-0.1-0.3-0.1-0.4c0,0,0-0.1,0-0.1l0,0c0.5-5.2,0.6-10.7-0.6-15.8c-1.1-4.9-3.5-9.4-7.9-12.4c-4.1-2.8-6.1-3-7.1-1.6
		c-1,1.6-1.4,4.7-1.8,8.7c0-0.2,0.1-0.3,0.1-0.5l0,0c0.3-1.8,1-3.2,1.6-3.8c0.5-0.5,1-0.6,1.6-0.5c0.5,0.1,0.9,0.5,1.2,1.2
		c0.4,1.1,0.5,3.5-0.2,7.4c-0.5,2.9-2.2,5-3.9,7.2c-0.9,1.1-1.7,2.2-2.4,3.3c-0.3,0.5-1,4.9-1.8,10c-1,7-2.2,15.3-2.2,16.7
		c-0.2,4.1,0.3,11.5,1.1,18.8c0.7,6.7,1.8,13.3,2.8,16.8c0.9,3,3.4,5.1,5.5,6.8c1.6,1.3,2.9,2.4,3.4,3.7l0,0.1
		c0.2,0.6,0.2,1.2-0.1,1.8c-0.2,0.5-0.5,0.8-0.9,1.1c-0.4,0.3-0.9,0.4-1.3,0.5c-0.7,0.1-1.4-0.1-2-0.6v0
		c-11.3-9-11.9-19.2-12.8-32.8c-0.1-1.6-0.2-3.3-0.3-5.2c-0.4-5.3-0.3-7.9-0.3-10.1c0.1-3.4,0.2-5.6-1.7-15.8l0,0
		c-0.5-2.4-0.9-5.7-1.4-9.3c-1.9-15-4.8-37.4-19.5-38.1c-2.9-0.1-3.8,1.3-4,4.8c-0.1,1.8,0,4.1,0.1,6.9c0.1,1.9,0.1,4,0.2,6.3
		c0,1.1,0,2.3,0.1,3.4c0.9-3.1,1.2-7.2,1.4-10.5c0.2-3.3,0.3-6,1.3-6.9c0,0,0.1-0.1,0.1-0.1c0.8-0.7,1.6-0.5,2.7,0.6
		c0,0,0,0,0.1,0.1c0.1,0.2,0.3,0.4,0.4,0.6c1.1,2,1.5,6.5,0.9,11.3c-0.7,4.8-2.3,9.8-5.3,12.6c0,0,0,0-0.1,0
		c-0.4,0.3-0.7,0.6-1.1,0.9c0.1,2.4,0.1,6.3,0.1,10.9c0.1,13.3,0.3,32,0.9,33.9c0.6,1.8,11,16.5,20.3,28.6
		c6.6,8.7,12.5,15.9,13.4,15.9c0.3,0,0.6,0.1,0.8,0.4c0.8,0.8,2,2,3.5,3.4c7.3,7.1,20.4,20,19.7,22.6c-0.1,0.3-0.4,0.6-0.7,0.7
		l-1.2,0.4c-0.1,0-0.1,0-0.2,0l0,0c0,0,0,0,0,0c0,0-0.1,0-0.1,0h0c-0.1,0-0.1,0-0.2,0c-2.8-0.5-11.5-9.8-17.4-16.1
		C91.2,515.3,89.7,513.7,88.8,512.7L88.8,512.7z M487.2,512.7L487.2,512.7c4.3-4.3,8.4-8.8,12.3-13.5c3.9-4.6,7.6-9.4,11.1-14.2
		c0,0,0.1-0.1,0.1-0.1c9.3-13,14.5-22.3,20.8-33.7c1.9-3.4,3.9-6.9,6.3-11.1l0.2-0.2c4.1-5.3,7.2-9.5,10.7-12.5v0
		c4.2-3.6,9.9-6,14.5-6.4c1.7-0.1,3.2,0,4.3,0.4c1,0.4,1.7,1,2,2c0.4,1,0.3,2.5-0.5,4.5c-2,5.1-4.9,10.5-7.7,15.8l-0.3,0.6
		c-1.4-3.4,1-6.9,3.3-10.1c0.5-0.7,1-1.4,1.5-2.2c0,0,0-0.1,0.1-0.1c0.5-0.7,0.4-1.2,0.3-1.8c0-0.1-0.1-0.2-0.1-0.3
		c0-0.4-0.3-0.8-0.6-0.9l-0.1,0l0,0c-0.9-0.4-2.1-1-3.2,0.4l0,0c-2.1,2.8-4.6,6.1-5.7,9.6c-1.1,3.5-1,7.1,2,10.2
		c-2.4,4.7-6.4,13.9-10.9,24.4c-8.9,20.7-20,46.3-25,51.4c-4.7,4.7-11.1,10.1-17.7,15.6c-8.5,7.1-17.2,14.5-22.9,20.8
		c-2.6,2.9-5.6,8.2-8.7,13.8c-4,7.1-8.3,15-12.8,19.5l0,0c-3.8,3.9-17.8,16.2-29.8,26.1c-8.6,7.2-16.2,13.1-18.1,13.7
		c-2.2,0.7-13,8.2-21.6,16.4c-5.4,5.1-10.1,10.5-11.4,14.7c-2.4,7.9-2.5,20.8-1.4,34.8c1.6,21.1,5.8,44.8,8.4,57.8l0,0l0,0
		l11.4,54.9h-95.6c-0.1-4.4-0.1-9.6-0.2-15.4c-0.4-41.6-1.2-114.2-5.3-140.7c-2.3-14.7,0-26.5,5.5-37.1c5.5-10.6,14.3-20,24.9-29.5
		c15.3-13.7,26.7-18.5,36.3-22.6c6.3-2.7,11.8-5,17.3-9.3l0,0l13.5-11.1c-9,10.4-20.5,24.1-23.4,30c-0.2,0.5,0,1.1,0.5,1.3l1.7,1
		c0.5,0.3,1,0.1,1.3-0.3l0,0c2-2.9,3.3-4.4,5.4-6.7c1.4-1.5,3-3.3,5.5-6.3c0,0,0.1-0.1,0.1-0.1l17-20.5l0,0c1.7-1.9,3.5-3.7,5.4-5.5
		c2.9-2.9,5.8-5.7,8.2-9c3.5-4.8,10.3-13.5,17-20.7c4.5-4.8,8.9-9,12.1-10.8c1.5-0.9,3.1-1.7,4.7-2.4c0.5-0.2,1-0.4,1.4-0.6
		c-5.8,6.5-7.7,10.6-8,12.9c-0.1,1,0,1.8,0.4,2.4c0.5,0.7,1.1,1,1.8,0.9c0.8-0.1,1.6-0.6,2-1.5l0,0l0,0c1.1-2.3,4.3-7.3,7.2-11.3
		c2.1-2.9,3.9-5.1,4.5-5.2c3.6-0.3,7.3,0.1,10.3,1.7c2.2,1.1,4,3,4.9,5.8c-0.6,1.1-0.9,2.3-1.2,3.6c-0.3,1.3-0.7,2.7-1.3,3.9v0
		c-3,5.3-7.1,10.3-11.1,15.2c-0.9,1.1-1.8,2.1-2.2,2.7c-0.1,0-0.1,0.1-0.1,0.1c-4.1,5-7.9,10.9-11.6,16.8
		c-3.7,5.8-7.5,11.7-11.6,16.7l0,0c-2.2,2.6-4.5,5.1-6.7,7.7c-4.1,4.6-8.1,9.2-11.8,14c-1.2,1.5-4.9,7.5-7.9,12.5
		c-2.4,4.1-4.1,7.7-3.7,8.4c0.7,1.2,1.7,1.3,2.9,0.6c2.8-1.6,7.5-9.5,10.9-15.1c1.5-2.5,2.8-4.6,3.3-5.3c0,0,0-0.1,0.1-0.1
		c2.7-3.3,5.5-6.4,8.2-9.5c7.3-8.3,14.5-16.4,20.2-26.5c4.7-8.3,9-13.5,14.6-20.2c1-1.2,2.1-2.5,3.1-3.7l0,0
		c3.4-4.1,8-10.3,9.9-16.4c2-6.3,1-12.5-6.9-16.1c-3.7-1.7-7.6-2.2-11.5-1.9c-3.5,0.2-7,1.1-10.3,2.4c3.3-6.8,3.2-16.5,3.1-26.4
		c-0.1-12.5-0.2-25.4,6.6-32.6c0.7-0.7,1.4-1.3,2.1-1.8c0.4-0.2,0.8-0.5,1.2-0.6c0.1,1.6,0.3,3.3,0.4,5.2c1.3,15,3.4,40.1-4.1,48.5
		l0,0c-0.8,0.9-1,1.9-0.7,2.8l0,0.1c0.4,0.9,1.3,1.5,2.4,1.4l0,0c1,0,2.2-0.5,3.3-1.8c2.6-2.9,5.3-10.1,5.1-25.9c0-1.4,0-2.6,0-3.9
		c-0.1-9.4-0.2-17.6-1.7-27.4c0.1-0.1,0.1-0.3,0.1-0.4c0,0,0-0.1,0-0.1l0,0c-0.5-5.2-0.5-10.7,0.6-15.8c1.1-4.9,3.5-9.4,7.9-12.4
		c4.1-2.8,6.1-3,7.1-1.6c1.1,1.6,1.4,4.7,1.8,8.7c0-0.2-0.1-0.3-0.1-0.5l0,0c-0.3-1.8-1-3.2-1.6-3.8c-0.5-0.5-1-0.6-1.6-0.5
		c-0.5,0.1-0.9,0.5-1.1,1.2c-0.4,1.1-0.5,3.5,0.1,7.4c0.5,2.9,2.2,5,3.9,7.2c0.8,1.1,1.7,2.2,2.3,3.3c0.3,0.5,1,4.9,1.8,10
		c1.1,7,2.2,15.3,2.3,16.7c0.2,4.1-0.3,11.5-1.1,18.8c-0.7,6.7-1.8,13.3-2.9,16.8c-0.9,3-3.4,5.1-5.5,6.8c-1.6,1.3-2.9,2.4-3.4,3.7
		l0,0.1c-0.2,0.6-0.2,1.2,0.1,1.8c0.2,0.5,0.5,0.8,1,1.1c0.4,0.3,0.8,0.4,1.3,0.5c0.7,0.1,1.4-0.1,1.9-0.6l0,0
		c11.3-9,11.9-19.2,12.8-32.8c0.1-1.6,0.2-3.3,0.3-5.2c0.4-5.3,0.3-7.9,0.2-10.1c-0.1-3.4-0.2-5.6,1.7-15.8l0,0
		c0.5-2.4,0.9-5.7,1.4-9.3c1.9-15,4.8-37.4,19.5-38.1c2.9-0.1,3.8,1.3,4,4.8c0.1,1.8,0,4.1-0.1,6.9c-0.1,1.9-0.1,4-0.2,6.3
		c0,1.1-0.1,2.3-0.1,3.4c-0.9-3.1-1.2-7.2-1.4-10.5c-0.2-3.3-0.3-6-1.3-6.9c0,0-0.1-0.1-0.1-0.1c-0.8-0.7-1.6-0.5-2.7,0.6
		c0,0-0.1,0-0.1,0.1c-0.1,0.2-0.3,0.4-0.4,0.6c-1.1,2-1.5,6.5-0.9,11.3c0.6,4.8,2.3,9.8,5.3,12.6c0,0,0,0,0.1,0
		c0.3,0.3,0.7,0.6,1.1,0.9c0,2.4-0.1,6.3-0.1,10.9c-0.1,13.3-0.2,32-0.9,33.9c-0.6,1.8-11,16.5-20.3,28.6
		c-6.6,8.7-12.5,15.9-13.4,15.9c-0.3,0-0.6,0.1-0.8,0.4c-0.8,0.8-2,2-3.5,3.4c-7.3,7.1-20.4,20-19.6,22.6c0.1,0.3,0.4,0.6,0.7,0.7
		l1.2,0.4c0.1,0,0.1,0,0.2,0l0,0h0c0,0,0.1,0,0.1,0h0c0.1,0,0.1,0,0.2,0c2.8-0.5,11.5-9.8,17.3-16.1
		C484.8,515.3,486.3,513.7,487.2,512.7L487.2,512.7z M498,498c-3.9,4.6-7.9,9-12.2,13.3v0c-1,1-2.5,2.6-4.3,4.5
		c-5.8,6.2-14.4,15.5-15.9,15.5l-0.4-0.1c1.1-2.7,12.5-13.9,19.1-20.2c1.5-1.4,2.7-2.7,3.5-3.5c2.3-1.4,8.1-8.3,14.3-16.5
		c9.4-12.2,20-27.2,20.6-29.2c0.7-2.2,0.8-21.1,1-34.5c0-4.9,0.1-9.1,0.1-11.4l0,0c0-0.4-0.2-0.7-0.5-0.9c-0.5-0.3-0.9-0.6-1.3-0.9
		c0,0,0-0.1-0.1-0.1c-2.6-2.4-4.1-7-4.7-11.3c-0.6-4.4-0.3-8.5,0.6-10.1c0-0.1,0.1-0.2,0.1-0.2l0-0.1c0.1-0.1-0.2-0.5-0.1-0.4l0.1,0
		c0.4,0.3,0.5,2.6,0.7,5.5c0.3,5,0.7,11.6,3.5,15.1l0,0c0.2,0.2,0.5,0.4,0.8,0.4c0.5,0,1-0.4,1-1c0-1.2,0.1-2.5,0.1-3.8
		c0-1.2,0.1-2.5,0.1-3.7c0.1-2.3,0.1-4.4,0.2-6.3c0.1-2.9,0.2-5.2,0.1-7.1c-0.2-4.9-1.5-6.9-6-6.7c-16.4,0.8-19.4,24.1-21.4,39.8
		c-0.5,3.6-0.9,6.8-1.4,9.2l0,0l0,0c-1.9,10.5-1.9,12.8-1.8,16.3c0.1,2.1,0.1,4.7-0.3,9.9c-0.1,1.7-0.2,3.5-0.3,5.2
		c-0.8,13.2-1.4,22.9-12,31.4l-0.1,0c-0.1,0.1-0.3,0.1-0.5,0.1c-0.1,0-0.3-0.1-0.4-0.2c-0.1-0.1-0.2-0.1-0.2-0.2c0-0.1,0-0.2,0-0.3
		l0,0c0.3-0.8,1.4-1.8,2.8-2.9c2.3-1.9,5-4.1,6.1-7.7c1.1-3.7,2.2-10.3,2.9-17.2c0.8-7.3,1.3-14.9,1.1-19.1c-0.1-1.6-1.2-9.9-2.3-17
		c-0.8-5.3-1.6-10-2-10.7c-0.7-1.2-1.6-2.4-2.5-3.6c-1.5-1.9-3-3.9-3.5-6.3c-0.5-2.9-0.6-4.8-0.4-5.8c0.3,0.5,0.5,1.2,0.7,2.2l0,0
		l0,0c0.4,2.1,1.4,4.3,2.3,6.3c0.3,0.5,0.5,1,0.7,1.5c0.1,0.4,0.6,0.7,1.1,0.7c0.5-0.1,0.9-0.6,0.9-1.1c-0.3-2.3-0.5-4.4-0.7-6.4
		c-0.5-4.6-0.8-8.4-2.3-10.5c-1.7-2.5-4.6-2.6-9.8,1c-4.9,3.4-7.5,8.2-8.7,13.6c-1.2,5.1-1.1,10.6-0.7,15.8
		c-0.1,0.2-0.2,0.4-0.1,0.7c1.6,9.9,1.6,18.3,1.7,27.7c0,1.3,0,2.6,0.1,3.9c0.2,15.1-2.2,21.9-4.6,24.5c-0.7,0.8-1.4,1.1-1.9,1.2
		c-0.3,0-0.5-0.1-0.5-0.2v0c-0.1-0.2,0-0.4,0.3-0.7v0l0,0c8.1-9,5.9-34.6,4.6-50c-0.2-2.5-0.4-4.7-0.5-6.4l0,0c0-0.1,0-0.1-0.1-0.2
		c-0.1-0.5-0.7-0.8-1.2-0.7c-1,0.3-2,0.7-2.9,1.3c-0.9,0.6-1.7,1.2-2.4,2.1c-7.4,7.8-7.3,21.1-7.1,34c0.1,10.9,0.2,21.5-4.3,27.9
		c-0.2,0.3-0.3,0.7-0.1,1c0.3,0.5,0.8,0.7,1.3,0.5c3.8-1.8,8.1-3.1,12.4-3.4c3.6-0.3,7.2,0.2,10.5,1.7c6.8,3,7.5,8.3,5.9,13.7
		c-1.8,5.7-6.2,11.7-9.5,15.7l0,0v0c-1.1,1.4-2.1,2.5-3.1,3.7c-5.6,6.7-10,12-14.8,20.5c-5.6,9.9-12.7,17.9-20,26.2
		c-2.7,3.1-5.5,6.3-8.3,9.6c0,0,0,0,0,0.1c-0.7,0.8-2,2.9-3.5,5.5c-3.3,5.4-7.9,13-10.2,14.4c-0.1,0.1-0.1,0.2-0.1,0.2
		c0,0,1.7-2.9,3.7-6.4c2.9-5,6.5-10.9,7.7-12.4c3.6-4.7,7.7-9.3,11.7-13.8c2.3-2.6,4.5-5.1,6.8-7.8l0,0h0c4.1-5.1,7.9-11,11.7-16.9
		c3.7-5.8,7.5-11.6,11.5-16.6c0,0,0-0.1,0.1-0.1c1-1.3,1.7-2,2.3-2.8c4.1-4.9,8.3-10,11.3-15.4l0-0.1c0.8-1.4,1.2-2.9,1.5-4.3
		c0.3-1.3,0.6-2.5,1.2-3.3c0.2-0.2,0.2-0.5,0.1-0.8c-1-3.6-3.3-6-6-7.4c-3.3-1.8-7.5-2.2-11.4-1.9c-1.2,0.1-3.5,2.7-5.9,6
		c-3,4.1-6.2,9.2-7.4,11.6c-0.1,0.2-0.3,0.4-0.4,0.4c0,0,0,0,0,0c-0.1-0.2-0.1-0.5-0.1-1c0.3-2.3,2.6-6.7,9.9-14.5
		c0.3-0.3,0.4-0.6,0.3-1c-0.1-0.5-0.7-0.9-1.2-0.7c-1.8,0.5-3.5,1.1-5.2,1.8c-1.7,0.7-3.3,1.6-4.9,2.5c-3.5,2-8,6.2-12.6,11.2
		c-6.7,7.3-13.6,16-17.2,20.9c-2.4,3.2-5.2,6-8,8.8c-1.8,1.8-3.7,3.6-5.4,5.6c0,0-0.1,0.1-0.1,0.1l-17,20.5l0,0
		c-2.4,2.8-4.1,4.7-5.5,6.3c-2,2.2-3.3,3.7-5,6.2l-0.1-0.1c4.3-7.7,20.5-26.2,28.8-35.8l1.8-2c0.3-0.4,0.3-0.9,0-1.3
		c-0.3-0.4-1-0.5-1.4-0.1l-22.8,18.7c-5.2,4.1-10.7,6.4-16.9,9c-9.8,4.1-21.3,9-36.9,23c-10.8,9.6-19.7,19.1-25.3,30
		c-5.7,10.9-8.1,23.2-5.7,38.3c4.1,26.3,4.9,98.9,5.3,140.4c0.1,6.2,0.1,11.7,0.2,16.3c0,0,0,0,0,0.1c0,0.6,0.5,1,1,1h97.7l0,0
		c0.1,0,0.1,0,0.2,0c0.5-0.1,0.9-0.7,0.8-1.2l-11.7-56.1l0,0c-2.6-12.8-6.7-36.5-8.3-57.5c-1-13.8-1-26.5,1.4-34.1
		c1.2-3.8,5.6-8.9,10.8-13.8c8.5-8,18.8-15.3,20.8-15.9c2.1-0.7,9.9-6.7,18.7-14.1c12-10,26.1-22.4,29.9-26.3l0,0l0,0
		c4.7-4.7,9.1-12.7,13.1-19.9c3.1-5.6,6-10.7,8.4-13.5c5.6-6.3,14.3-13.6,22.7-20.6c6.6-5.6,13.1-11,17.8-15.7
		c5.3-5.3,16.5-31.2,25.5-52c4.8-11,8.9-20.6,11.2-24.9l0,0c0.2-0.4,0.1-0.9-0.2-1.2c-2.8-2.6-3-5.7-2-8.6c1-3.2,3.3-6.3,5.3-8.9
		l0.1-0.1c0-0.1,0.2,0,0.3,0l0,0.1c0,0.1,0,0.2,0,0.2v0.1c-0.4,0.7-1,1.4-1.5,2.2c-2.9,4.2-6.2,8.9-2.4,13.9l0,0
		c0.1,0.1,0.2,0.2,0.3,0.3c0.5,0.3,1.1,0.1,1.3-0.4l1.2-2.2c2.9-5.3,5.8-10.8,7.9-16c0.9-2.4,1-4.3,0.5-5.8
		c-0.5-1.6-1.7-2.6-3.2-3.2c-1.4-0.6-3.2-0.7-5.2-0.5c-4.9,0.4-11.1,3-15.6,6.8l0,0h0c-3.6,3.1-6.9,7.4-11,12.8l-0.2,0.3
		c-0.1,0-0.1,0.1-0.1,0.1c-2.2,3.9-4.3,7.6-6.3,11.2c-6.3,11.3-11.5,20.6-20.7,33.4c0,0,0,0-0.1,0.1
		C505.6,488.7,501.9,493.4,498,498L498,498z M78,498c3.9,4.6,7.9,9,12.2,13.3v0c1,1,2.5,2.6,4.3,4.5c5.8,6.2,14.4,15.5,15.9,15.5
		l0.4-0.1c-1.1-2.7-12.5-13.9-19-20.2c-1.5-1.4-2.7-2.7-3.5-3.5c-2.3-1.4-8.1-8.3-14.3-16.5c-9.4-12.2-20-27.2-20.6-29.2
		c-0.7-2.2-0.9-21.1-1-34.5c0-4.9-0.1-9.1-0.1-11.4l0,0c0-0.4,0.2-0.7,0.5-0.9c0.5-0.3,0.9-0.6,1.2-0.9c0,0,0.1-0.1,0.1-0.1
		c2.7-2.4,4.1-7,4.7-11.3c0.6-4.4,0.3-8.5-0.6-10.1c-0.1-0.1-0.1-0.2-0.1-0.2l-0.1-0.1c-0.1-0.1,0.2-0.5,0.1-0.4l0,0
		c-0.4,0.3-0.5,2.6-0.7,5.5c-0.3,5-0.7,11.6-3.5,15.1l0,0c-0.2,0.2-0.4,0.4-0.7,0.4c-0.5,0-1-0.4-1-1c0-1.2-0.1-2.5-0.1-3.8
		c0-1.2-0.1-2.5-0.1-3.7c0-2.3-0.1-4.4-0.2-6.3c-0.1-2.9-0.2-5.2-0.1-7.1c0.3-4.9,1.5-6.9,6.1-6.7c16.4,0.8,19.4,24.1,21.4,39.8
		c0.5,3.6,0.9,6.8,1.4,9.2l0,0v0c2,10.5,1.9,12.8,1.8,16.3c-0.1,2.1-0.1,4.7,0.2,9.9c0.1,1.7,0.3,3.5,0.3,5.2
		c0.8,13.2,1.4,22.9,12,31.4l0,0c0.1,0.1,0.3,0.1,0.5,0.1c0.2,0,0.3-0.1,0.4-0.2c0.1-0.1,0.2-0.1,0.2-0.2c0-0.1,0.1-0.2,0-0.3v0
		c-0.3-0.8-1.4-1.8-2.8-2.9c-2.3-1.9-5-4.1-6.2-7.7c-1.1-3.7-2.2-10.3-2.9-17.2c-0.8-7.3-1.3-14.9-1.1-19.1c0.1-1.6,1.2-9.9,2.3-17
		c0.8-5.3,1.6-10,2-10.7c0.7-1.2,1.6-2.4,2.5-3.6c1.5-1.9,3.1-3.9,3.5-6.3c0.5-2.9,0.6-4.8,0.4-5.8c-0.3,0.5-0.5,1.2-0.7,2.2l0,0
		l0,0c-0.4,2.1-1.4,4.3-2.3,6.3c-0.3,0.5-0.5,1-0.7,1.5c-0.2,0.4-0.6,0.7-1.1,0.7c-0.6-0.1-0.9-0.6-0.9-1.1c0.3-2.3,0.5-4.4,0.7-6.4
		c0.5-4.6,0.9-8.4,2.3-10.5c1.7-2.5,4.6-2.6,9.8,1c4.9,3.4,7.5,8.2,8.7,13.6c1.2,5.1,1.1,10.6,0.7,15.8c0.1,0.2,0.2,0.4,0.1,0.7
		c-1.5,9.9-1.6,18.3-1.7,27.7c0,1.3,0,2.6,0,3.9c-0.2,15.1,2.2,21.9,4.6,24.5c0.7,0.8,1.4,1.1,1.9,1.2c0.3,0,0.5-0.1,0.5-0.2l0,0
		c0.1-0.2,0-0.4-0.3-0.7v0l0,0c-8.1-9-5.9-34.6-4.6-50c0.2-2.5,0.4-4.7,0.5-6.4l0,0c0-0.1,0-0.1,0-0.2c0.1-0.5,0.7-0.8,1.2-0.7
		c1,0.3,2,0.7,2.9,1.3c0.9,0.6,1.6,1.2,2.4,2.1c7.4,7.8,7.3,21.1,7.2,34c-0.1,10.9-0.2,21.5,4.3,27.9c0.2,0.3,0.3,0.7,0.1,1
		c-0.2,0.5-0.8,0.7-1.3,0.5c-3.9-1.8-8.1-3.1-12.4-3.4c-3.6-0.3-7.2,0.2-10.5,1.7c-6.7,3-7.5,8.3-5.9,13.7
		c1.8,5.7,6.2,11.7,9.6,15.7l0,0v0c1.1,1.4,2.1,2.5,3.1,3.7c5.6,6.7,10,12,14.8,20.5c5.6,9.9,12.7,17.9,19.9,26.2
		c2.8,3.1,5.6,6.3,8.3,9.6c0,0,0,0,0.1,0.1c0.7,0.8,2,2.9,3.5,5.5c3.3,5.4,7.9,13,10.2,14.4c0.1,0.1,0.1,0.2,0.1,0.2
		c0,0-1.7-2.9-3.8-6.4c-2.9-5-6.5-10.9-7.7-12.4c-3.6-4.7-7.7-9.3-11.7-13.8c-2.3-2.6-4.6-5.1-6.8-7.8h0h0
		c-4.2-5.1-7.9-11-11.7-16.9c-3.7-5.8-7.4-11.6-11.5-16.6c0,0-0.1-0.1-0.1-0.1c-1.1-1.3-1.7-2-2.3-2.8c-4.1-4.9-8.3-10-11.3-15.4
		l-0.1-0.1c-0.8-1.4-1.1-2.9-1.5-4.3c-0.3-1.3-0.6-2.5-1.2-3.3c-0.2-0.2-0.2-0.5-0.1-0.8c1-3.6,3.2-6,6-7.4
		c3.3-1.8,7.5-2.2,11.4-1.9c1.2,0.1,3.5,2.7,6,6c2.9,4.1,6.2,9.2,7.4,11.6c0.1,0.2,0.3,0.4,0.4,0.4v0c0.1-0.2,0.2-0.5,0.1-1
		c-0.3-2.3-2.6-6.7-9.9-14.5c-0.2-0.3-0.4-0.6-0.3-1c0.1-0.5,0.7-0.9,1.2-0.7c1.8,0.5,3.5,1.1,5.2,1.8c1.7,0.7,3.3,1.6,4.9,2.5
		c3.5,2,8,6.2,12.6,11.2c6.7,7.3,13.6,16,17.1,20.9c2.4,3.2,5.2,6,8,8.8c1.8,1.8,3.7,3.6,5.4,5.6c0,0,0.1,0.1,0.1,0.1l17,20.5l0,0
		c2.3,2.8,4.1,4.7,5.5,6.3c2,2.2,3.3,3.7,5.1,6.2l0.1-0.1c-4.3-7.7-20.5-26.2-28.8-35.8l-1.8-2c-0.3-0.4-0.3-0.9,0-1.3
		c0.3-0.4,1-0.5,1.4-0.1l22.8,18.7c5.2,4.1,10.7,6.4,16.8,9c9.8,4.1,21.3,9,36.9,23c10.7,9.6,19.7,19.1,25.3,30
		c5.7,10.9,8.1,23.2,5.7,38.3c-4.1,26.3-4.8,98.9-5.3,140.4c-0.1,6.2-0.1,11.7-0.2,16.3c0,0,0,0,0,0.1c0,0.6-0.4,1-1,1h-97.8l0,0
		c-0.1,0-0.1,0-0.2,0c-0.5-0.1-0.9-0.7-0.8-1.2l11.6-56.1l0,0c2.6-12.8,6.7-36.5,8.3-57.5c1-13.8,1-26.5-1.3-34.1
		c-1.2-3.8-5.6-8.9-10.8-13.8c-8.5-8-18.9-15.3-20.9-15.9c-2.1-0.7-9.9-6.7-18.7-14.1c-12-10-26.1-22.4-29.9-26.3l0,0l0,0
		c-4.6-4.7-9.1-12.7-13.1-19.9c-3.1-5.6-6-10.7-8.4-13.5c-5.6-6.3-14.3-13.6-22.7-20.6c-6.6-5.6-13.1-11-17.8-15.7
		c-5.3-5.3-16.4-31.2-25.4-52c-4.8-11-8.9-20.6-11.2-24.9l0,0c-0.2-0.4-0.1-0.9,0.2-1.2c2.8-2.6,3-5.7,2-8.6c-1-3.2-3.3-6.3-5.4-8.9
		l0-0.1c-0.1-0.1-0.2,0-0.4,0v0.1c0,0.1,0,0.2,0,0.2l0,0.1c0.4,0.7,0.9,1.4,1.5,2.2c2.9,4.2,6.2,8.9,2.4,13.9l0,0
		c-0.1,0.1-0.2,0.2-0.3,0.3c-0.5,0.3-1.1,0.1-1.4-0.4l-1.2-2.2c-2.8-5.3-5.8-10.8-7.8-16c-0.9-2.4-1-4.3-0.6-5.8
		c0.5-1.6,1.7-2.6,3.3-3.2c1.4-0.6,3.2-0.7,5.2-0.5c4.9,0.4,11.1,3,15.6,6.8l0,0l0,0c3.7,3.1,6.9,7.4,11,12.8l0.2,0.3
		c0,0,0.1,0.1,0.1,0.1c2.2,3.9,4.3,7.6,6.3,11.2c6.2,11.3,11.4,20.6,20.7,33.4c0,0,0,0,0.1,0.1C70.4,488.7,74.1,493.4,78,498L78,498
		z"/>
</g>
<g id="guias">
</g>
</svg>
