<?xml version="1.0" encoding="utf-8"?>
<!-- Generator: Adobe Illustrator 21.1.0, SVG Export Plug-In . SVG Version: 6.00 Build 0)  -->
<svg version="1.1" xmlns="http://www.w3.org/2000/svg" xmlns:xlink="http://www.w3.org/1999/xlink" x="0px" y="0px"
	 viewBox="0 0 65 62" style="enable-background:new 0 0 65 62;" xml:space="preserve">
<g id="Capa_1">
	<g style="opacity:0.9;">
		<g>
			<g>
				<path style="fill:none;stroke:#FFFFFF;stroke-miterlimit:10;" d="M1.8,60.7c5-1.8,12.6-2.6,14.6-4.5c2-1.9,2.8-6.9,0.4-9.5
					c-2.4-2.6-7.4-2.2-9.5-0.3C5.2,48.4,1.8,60.7,1.8,60.7z"/>
				<path style="fill:none;stroke:#FFFFFF;stroke-miterlimit:10;" d="M4.4,58.3c4.1-1.5,10.3-2.1,11.9-3.7c1.7-1.6,2.3-5.6,0.3-7.7
					c-2-2.1-6.1-1.8-7.8-0.2C7.2,48.2,4.4,58.3,4.4,58.3z"/>
				<path style="fill:none;stroke:#FFFFFF;stroke-miterlimit:10;" d="M7.2,55.6c3.1-1.1,7.9-1.6,9.2-2.8c1.3-1.2,1.8-4.3,0.3-6
					c-1.5-1.6-4.7-1.4-6-0.2C9.4,47.9,7.2,55.6,7.2,55.6z"/>
			</g>
			<g>
				<path style="fill:none;stroke:#FFFFFF;stroke-miterlimit:10;" d="M2.1,52.5c3.5-0.4,8.5,0.2,10.1-0.8c1.6-0.9,2.8-4.1,1.6-6.1
					c-1.2-2-4.5-2.5-6.1-1.6C6.1,45.1,2.1,52.5,2.1,52.5z"/>
			</g>
			<g>
				<path style="fill:none;stroke:#FFFFFF;stroke-miterlimit:10;" d="M11.3,53.9c1.7-1.5,4.5-3,5-4.1c0.5-1.1,0-3.1-1.3-3.8
					c-1.4-0.6-3.3,0.3-3.8,1.4C10.7,48.6,11.3,53.9,11.3,53.9z"/>
			</g>
			<g>
				<path style="fill:none;stroke:#FFFFFF;stroke-miterlimit:10;" d="M57.4,34.2c-16.4,1.3-10.3-9-13.9-13
					c-1.9-2.1-12.1,4.1-11.2-15.4c7.9-6.9,19.9-6.2,26.8,1.7C66,15.3,65.3,27.3,57.4,34.2z"/>
				<defs>
					<filter id="Adobe_OpacityMaskFilter" filterUnits="userSpaceOnUse" x="19.8" y="4.5" width="40.3" height="40.5">
						
							<feColorMatrix  type="matrix" values="-1 0 0 0 1  0 -1 0 0 1  0 0 -1 0 1  0 0 0 1 0" color-interpolation-filters="sRGB" result="source"/>
						<feFlood  style="flood-color:white;flood-opacity:1" result="back"/>
						<feBlend  in="source" in2="back" mode="normal"/>
					</filter>
				</defs>
				<mask maskUnits="userSpaceOnUse" x="19.8" y="4.5" width="40.3" height="40.5" id="SVGID_1_">
					<g style="filter:url(#Adobe_OpacityMaskFilter);">
						<g>
							
								<ellipse transform="matrix(0.7493 -0.6623 0.6623 0.7493 -4.4825 29.3899)" style="fill:none;stroke:#403F41;stroke-width:4.0841;stroke-linecap:round;stroke-miterlimit:10;" cx="36.6" cy="20.6" rx="2.5" ry="1.9"/>
							
								<ellipse transform="matrix(0.7493 -0.6623 0.6623 0.7493 -5.7335 31.7635)" style="fill:none;stroke:#403F41;stroke-width:4.0841;stroke-linecap:round;stroke-miterlimit:10;" cx="39.1" cy="23.5" rx="2.5" ry="1.9"/>
							
								<ellipse transform="matrix(0.7493 -0.6623 0.6623 0.7493 -6.985 34.138)" style="fill:none;stroke:#403F41;stroke-width:4.0841;stroke-linecap:round;stroke-miterlimit:10;" cx="41.6" cy="26.3" rx="2.5" ry="1.9"/>
							
								<ellipse transform="matrix(0.7493 -0.6623 0.6623 0.7493 -8.2364 36.512)" style="fill:none;stroke:#403F41;stroke-width:4.0841;stroke-linecap:round;stroke-miterlimit:10;" cx="44.1" cy="29.1" rx="2.5" ry="1.9"/>
						</g>
						<g>
							<path style="fill:none;stroke:#403F41;stroke-width:4.8956;stroke-linecap:round;stroke-miterlimit:10;" d="M36.5,16
								c0,0-3.8,8.2-5.4,11c-1.6,2.8-7,7.7-7,7.7"/>
							<path style="fill:none;stroke:#403F41;stroke-width:4.8956;stroke-linecap:round;stroke-miterlimit:10;" d="M48.7,29.8
								c0,0-8.6,2.8-11.6,4c-3,1.2-8.5,6-8.5,6"/>
						</g>
					</g>
				</mask>
				<path style="mask:url(#SVGID_1_);fill:none;stroke:#FFFFFF;stroke-miterlimit:10;" d="M32.3,5.8c-7.5,9.4-4.8,14.7-12,25.2
					c1.1,8.1,1.5,7,10.7,13.5c9.6-6.4,20.2-4.7,26.5-10.2C67.1,26.4,40.8,0.3,32.3,5.8z"/>
				<path style="fill:#FFFFFF;" d="M17.4,36.3L13,40.2c-1.4,1.2-1.7,3-0.7,4.1l5.2,5.9c1,1.1,2.8,1,4.2-0.2l4.4-3.9L17.4,36.3z"/>
				<path style="fill:#FFFFFF;" d="M20.6,29.1l-7.1,6.3c-1.4,1.2-1.5,3.3-0.3,4.6l8.6,9.8c1.2,1.3,3.3,1.5,4.6,0.3l7.1-6.3
					L20.6,29.1z"/>
				<path style="fill:#FFFFFF;" d="M31.8,46.2c-0.2,0.2-0.5,0.2-0.6,0L17.9,31.1c-0.2-0.2-0.1-0.5,0.1-0.6l0.6-0.5
					c0.2-0.2,0.5-0.2,0.6,0L32.5,45c0.2,0.2,0.1,0.5-0.1,0.6L31.8,46.2z"/>
				<path style="fill:#FFFFFF;" d="M29.7,48c-0.2,0.2-0.5,0.2-0.6,0L15.8,32.9c-0.2-0.2-0.1-0.5,0.1-0.6l0.6-0.5
					c0.2-0.2,0.5-0.2,0.6,0l13.3,15.1c0.2,0.2,0.1,0.5-0.1,0.6L29.7,48z"/>
				<path style="fill:#FFFFFF;" d="M27.7,49.9c-0.2,0.2-0.5,0.2-0.6,0L13.7,34.8c-0.2-0.2-0.1-0.5,0.1-0.6l0.6-0.5
					c0.2-0.2,0.5-0.2,0.6,0l13.3,15.1c0.2,0.2,0.1,0.5-0.1,0.6L27.7,49.9z"/>
			</g>
		</g>
	</g>
</g>
<g id="guias">
</g>
</svg>
