<?xml version="1.0" encoding="utf-8"?>
<!-- Generator: Adobe Illustrator 21.0.2, SVG Export Plug-In . SVG Version: 6.00 Build 0)  -->
<svg version="1.1" xmlns="http://www.w3.org/2000/svg" xmlns:xlink="http://www.w3.org/1999/xlink" x="0px" y="0px"
	 viewBox="0 0 277 249" style="enable-background:new 0 0 277 249;" xml:space="preserve">
<g id="Capa_1">
	<g>
		<path style="fill:#FFFFFF;" d="M22.2,212.2c-4-1.2-6.9-2.6-8.8-4.3c-1.8-1.7-2.7-3.8-2.7-6.2c0-2.8,1.1-5.1,3.4-6.9
			c2.2-1.8,5.1-2.7,8.7-2.7c2.4,0,4.6,0.5,6.5,1.4c1.9,0.9,3.4,2.2,4.4,3.9s1.6,3.5,1.6,5.4h-4.7c0-2.2-0.7-3.9-2.1-5.1
			s-3.3-1.8-5.8-1.8c-2.3,0-4.1,0.5-5.4,1.5c-1.3,1-1.9,2.4-1.9,4.2c0,1.5,0.6,2.7,1.8,3.7c1.2,1,3.3,1.9,6.3,2.8
			c3,0.8,5.3,1.7,6.9,2.8c1.7,1,2.9,2.2,3.7,3.5s1.2,2.9,1.2,4.7c0,2.9-1.1,5.2-3.4,6.9c-2.2,1.7-5.2,2.6-9,2.6
			c-2.4,0-4.7-0.5-6.8-1.4c-2.1-0.9-3.7-2.2-4.9-3.8s-1.7-3.5-1.7-5.5h4.7c0,2.1,0.8,3.8,2.4,5.1c1.6,1.2,3.7,1.9,6.4,1.9
			c2.5,0,4.4-0.5,5.7-1.5s2-2.4,2-4.1c0-1.7-0.6-3.1-1.8-4C27.6,214,25.4,213.1,22.2,212.2z"/>
		<path style="fill:#FFFFFF;" d="M39.5,214.5c0-2.6,0.5-4.9,1.5-7c1-2.1,2.4-3.7,4.2-4.8c1.8-1.1,3.9-1.7,6.2-1.7
			c3.6,0,6.5,1.2,8.7,3.7s3.3,5.8,3.3,9.9v0.3c0,2.6-0.5,4.9-1.5,6.9c-1,2-2.4,3.6-4.2,4.8c-1.8,1.1-3.9,1.7-6.3,1.7
			c-3.6,0-6.5-1.2-8.7-3.7s-3.3-5.8-3.3-9.9V214.5z M44,215.1c0,2.9,0.7,5.3,2,7.1c1.4,1.8,3.2,2.7,5.5,2.7c2.3,0,4.1-0.9,5.5-2.7
			c1.4-1.8,2-4.3,2-7.6c0-2.9-0.7-5.2-2.1-7c-1.4-1.8-3.2-2.7-5.5-2.7c-2.2,0-4,0.9-5.4,2.7S44,211.8,44,215.1z"/>
		<path style="fill:#FFFFFF;" d="M79.8,224.8c1.6,0,3-0.5,4.2-1.5c1.2-1,1.9-2.2,2-3.7h4.3c-0.1,1.5-0.6,3-1.6,4.3
			c-1,1.4-2.2,2.5-3.8,3.3c-1.6,0.8-3.3,1.2-5.1,1.2c-3.6,0-6.5-1.2-8.6-3.6c-2.1-2.4-3.2-5.7-3.2-9.9v-0.8c0-2.6,0.5-4.9,1.4-6.9
			c0.9-2,2.3-3.6,4.1-4.7c1.8-1.1,3.9-1.7,6.3-1.7c3,0,5.4,0.9,7.4,2.7c2,1.8,3,4.1,3.1,6.9H86c-0.1-1.7-0.8-3.1-1.9-4.2
			c-1.2-1.1-2.6-1.6-4.3-1.6c-2.3,0-4.1,0.8-5.3,2.5c-1.3,1.7-1.9,4-1.9,7.2v0.9c0,3,0.6,5.4,1.9,7C75.7,224,77.5,224.8,79.8,224.8z
			"/>
		<path style="fill:#FFFFFF;" d="M95.4,194.6c0-0.7,0.2-1.4,0.7-1.9c0.4-0.5,1.1-0.8,2-0.8s1.5,0.3,2,0.8c0.5,0.5,0.7,1.1,0.7,1.9
			s-0.2,1.3-0.7,1.8c-0.5,0.5-1.1,0.7-2,0.7s-1.5-0.2-2-0.7C95.6,195.9,95.4,195.3,95.4,194.6z M100.3,228h-4.5v-26.4h4.5V228z"/>
		<path style="fill:#FFFFFF;" d="M123.8,228c-0.3-0.5-0.5-1.4-0.6-2.8c-2.1,2.2-4.6,3.3-7.5,3.3c-2.6,0-4.7-0.7-6.4-2.2
			c-1.7-1.5-2.5-3.3-2.5-5.6c0-2.8,1-4.9,3.1-6.4c2.1-1.5,5-2.3,8.8-2.3h4.4v-2.1c0-1.6-0.5-2.8-1.4-3.8c-0.9-0.9-2.3-1.4-4.2-1.4
			c-1.6,0-3,0.4-4.1,1.2c-1.1,0.8-1.6,1.8-1.6,3h-4.5c0-1.3,0.5-2.6,1.4-3.8c0.9-1.2,2.2-2.2,3.8-2.9c1.6-0.7,3.4-1.1,5.3-1.1
			c3,0,5.4,0.8,7.2,2.3c1.7,1.5,2.6,3.6,2.7,6.3v12.2c0,2.4,0.3,4.4,0.9,5.8v0.4H123.8z M116.3,224.6c1.4,0,2.8-0.4,4-1.1
			s2.2-1.7,2.8-2.9v-5.4h-3.5c-5.5,0-8.3,1.6-8.3,4.9c0,1.4,0.5,2.5,1.4,3.3C113.6,224.2,114.9,224.6,116.3,224.6z"/>
		<path style="fill:#FFFFFF;" d="M139.6,228h-4.5v-37.5h4.5V228z"/>
		<path style="fill:#FFFFFF;" d="M152.2,214.1V228h-4.7v-35.5h13.1c3.9,0,6.9,1,9.1,3c2.2,2,3.3,4.6,3.3,7.9c0,3.5-1.1,6.1-3.2,8
			c-2.2,1.9-5.2,2.8-9.3,2.8H152.2z M152.2,210.3h8.4c2.5,0,4.4-0.6,5.8-1.8c1.3-1.2,2-2.9,2-5.1c0-2.1-0.7-3.8-2-5.1
			c-1.3-1.3-3.2-1.9-5.5-2h-8.7V210.3z"/>
		<path style="fill:#FFFFFF;" d="M183.3,228h-4.5v-37.5h4.5V228z"/>
		<path style="fill:#FFFFFF;" d="M206.8,228c-0.3-0.5-0.5-1.4-0.6-2.8c-2.1,2.2-4.6,3.3-7.5,3.3c-2.6,0-4.7-0.7-6.4-2.2
			c-1.7-1.5-2.5-3.3-2.5-5.6c0-2.8,1-4.9,3.1-6.4c2.1-1.5,5-2.3,8.8-2.3h4.4v-2.1c0-1.6-0.5-2.8-1.4-3.8c-0.9-0.9-2.3-1.4-4.2-1.4
			c-1.6,0-3,0.4-4.1,1.2c-1.1,0.8-1.6,1.8-1.6,3h-4.5c0-1.3,0.5-2.6,1.4-3.8c0.9-1.2,2.2-2.2,3.8-2.9c1.6-0.7,3.4-1.1,5.3-1.1
			c3,0,5.4,0.8,7.2,2.3c1.7,1.5,2.6,3.6,2.7,6.3v12.2c0,2.4,0.3,4.4,0.9,5.8v0.4H206.8z M199.3,224.6c1.4,0,2.8-0.4,4-1.1
			s2.2-1.7,2.8-2.9v-5.4h-3.5c-5.5,0-8.3,1.6-8.3,4.9c0,1.4,0.5,2.5,1.4,3.3C196.6,224.2,197.9,224.6,199.3,224.6z"/>
		<path style="fill:#FFFFFF;" d="M222,201.6l0.1,3.3c2-2.5,4.7-3.8,7.9-3.8c5.6,0,8.4,3.1,8.4,9.4V228H234v-17.5
			c0-1.9-0.5-3.3-1.3-4.2s-2.2-1.4-4-1.4c-1.5,0-2.8,0.4-3.9,1.2c-1.1,0.8-2,1.8-2.6,3.1V228h-4.5v-26.4H222z"/>
		<path style="fill:#FFFFFF;" d="M256.3,228.5c-3.6,0-6.5-1.2-8.7-3.5s-3.4-5.5-3.4-9.4v-0.8c0-2.6,0.5-5,1.5-7s2.4-3.7,4.2-4.8
			c1.8-1.2,3.7-1.7,5.8-1.7c3.4,0,6.1,1.1,8,3.4s2.9,5.5,2.9,9.7v1.9h-17.9c0.1,2.6,0.8,4.7,2.3,6.3c1.5,1.6,3.3,2.4,5.6,2.4
			c1.6,0,2.9-0.3,4.1-1c1.1-0.7,2.1-1.5,2.9-2.6l2.8,2.1C264,226.8,260.7,228.5,256.3,228.5z M255.7,204.8c-1.8,0-3.4,0.7-4.6,2
			c-1.2,1.3-2,3.2-2.3,5.6h13.2V212c-0.1-2.3-0.7-4.1-1.9-5.3C259.1,205.4,257.6,204.8,255.7,204.8z"/>
	</g>
	<g>
		<g>
			<g>
				<path style="fill:#FFFFFF;" d="M69.9,151.6c11.6-4.2,29.2-6,34-10.4c4.8-4.4,6.5-16,0.9-22.1c-5.6-6-17.2-5.2-22.1-0.7
					C78,123,69.9,151.6,69.9,151.6z"/>
				<path style="fill:#FFFFFF;" d="M76,146c9.5-3.4,23.9-4.9,27.8-8.5c3.9-3.6,5.4-13.1,0.8-18c-4.6-4.9-14.1-4.2-18-0.5
					C82.5,122.6,76,146,76,146z"/>
				<path style="fill:#FFFFFF;" d="M82.6,139.9c7.3-2.6,18.4-3.8,21.4-6.6c3-2.8,4.1-10.1,0.6-13.9c-3.5-3.8-10.9-3.3-13.9-0.4
					C87.6,121.9,82.6,139.9,82.6,139.9z"/>
			</g>
			<g>
				<path style="fill:#FFFFFF;" d="M70.8,132.7c8.1-1,19.8,0.4,23.6-1.8c3.7-2.2,6.6-9.4,3.8-14.2c-2.8-4.7-10.4-5.9-14.2-3.6
					C80.2,115.3,70.8,132.7,70.8,132.7z"/>
			</g>
			<g>
				<path style="fill:#FFFFFF;" d="M92.2,136c3.9-3.5,10.5-7,11.7-9.5c1.2-2.5,0-7.3-3.1-8.8c-3.2-1.5-7.6,0.7-8.7,3.2
					C90.8,123.5,92.2,136,92.2,136z"/>
			</g>
			<g>
				<path style="fill:#FFFFFF;" d="M199.5,90.1c-38.1,2.9-23.9-20.8-32.4-30.3c-4.4-5-28.2,9.6-26.1-35.9
					c18.3-16.2,46.2-14.4,62.4,3.8C219.5,46,217.8,73.9,199.5,90.1z"/>
				<defs>
					<filter id="Adobe_OpacityMaskFilter" filterUnits="userSpaceOnUse" x="113" y="22.2" width="91.3" height="91.6">
						
							<feColorMatrix  type="matrix" values="-1 0 0 0 1  0 -1 0 0 1  0 0 -1 0 1  0 0 0 1 0" color-interpolation-filters="sRGB" result="source"/>
						<feFlood  style="flood-color:white;flood-opacity:1" result="back"/>
						<feBlend  in="source" in2="back" mode="normal"/>
					</filter>
				</defs>
				<mask maskUnits="userSpaceOnUse" x="113" y="22.2" width="91.3" height="91.6" id="SVGID_1_">
					<g style="filter:url(#Adobe_OpacityMaskFilter);">
						<g>
							
								<ellipse transform="matrix(0.7493 -0.6623 0.6623 0.7493 -0.8601 114.6083)" style="fill:none;stroke:#403F41;stroke-width:4.0841;stroke-linecap:round;stroke-miterlimit:10;" cx="150.9" cy="58.4" rx="5.8" ry="4.4"/>
							
								<ellipse transform="matrix(0.7493 -0.6623 0.6623 0.7493 -3.7705 120.1302)" style="fill:none;stroke:#403F41;stroke-width:4.0841;stroke-linecap:round;stroke-miterlimit:10;" cx="156.8" cy="65" rx="5.8" ry="4.4"/>
							
								<ellipse transform="matrix(0.7493 -0.6623 0.6623 0.7493 -6.6821 125.6543)" style="fill:none;stroke:#403F41;stroke-width:4.0841;stroke-linecap:round;stroke-miterlimit:10;" cx="162.6" cy="71.7" rx="5.8" ry="4.4"/>
							
								<ellipse transform="matrix(0.7493 -0.6623 0.6623 0.7493 -9.5933 131.1773)" style="fill:none;stroke:#403F41;stroke-width:4.0841;stroke-linecap:round;stroke-miterlimit:10;" cx="168.5" cy="78.3" rx="5.8" ry="4.4"/>
						</g>
						<g>
							<path style="fill:none;stroke:#403F41;stroke-width:4.8956;stroke-linecap:round;stroke-miterlimit:10;" d="M150.7,47.6
								c0,0-8.9,19-12.5,25.6c-3.7,6.6-16.4,18-16.4,18"/>
							<path style="fill:none;stroke:#403F41;stroke-width:4.8956;stroke-linecap:round;stroke-miterlimit:10;" d="M179.2,79.8
								c0,0-19.9,6.5-27,9.3c-7,2.8-19.8,14.1-19.8,14.1"/>
						</g>
					</g>
				</mask>
				<path style="mask:url(#SVGID_1_);fill:#FFFFFF;" d="M141,23.9C123.5,45.8,129.8,58,113,82.5c2.6,18.8,3.6,16.3,24.9,31.3
					c22.3-14.8,47.1-10.9,61.6-23.7C221.9,71.9,160.8,11.2,141,23.9z"/>
				<path style="fill:#FFFFFF;" d="M106.2,94.9L96,104c-3.1,2.8-3.9,7.1-1.7,9.6l12.1,13.7c2.2,2.5,6.6,2.3,9.7-0.5l10.2-9
					L106.2,94.9z"/>
				<path style="fill:#FFFFFF;" d="M113.7,78.2L97.2,92.8c-3.1,2.8-3.4,7.6-0.7,10.7l20.1,22.7c2.8,3.1,7.6,3.4,10.7,0.7l16.6-14.6
					L113.7,78.2z"/>
				<path style="fill:#FFFFFF;" d="M139.9,117.8c-0.5,0.4-1.1,0.4-1.5-0.1l-31-35c-0.4-0.4-0.3-1.1,0.1-1.5L109,80
					c0.5-0.4,1.1-0.4,1.5,0.1l31,35c0.4,0.4,0.3,1.1-0.1,1.5L139.9,117.8z"/>
				<path style="fill:#FFFFFF;" d="M135,122.2c-0.5,0.4-1.1,0.4-1.5-0.1l-31-35c-0.4-0.4-0.3-1.1,0.1-1.5l1.4-1.3
					c0.5-0.4,1.1-0.4,1.5,0.1l31,35c0.4,0.4,0.3,1.1-0.1,1.5L135,122.2z"/>
				<path style="fill:#FFFFFF;" d="M130.2,126.6c-0.5,0.4-1.1,0.4-1.5-0.1l-31-35c-0.4-0.4-0.3-1.1,0.1-1.5l1.4-1.3
					c0.5-0.4,1.1-0.4,1.5,0.1l31,35c0.4,0.4,0.3,1.1-0.1,1.5L130.2,126.6z"/>
			</g>
		</g>
	</g>
</g>
<g id="guias">
</g>
</svg>
