<?xml version="1.0" encoding="utf-8"?>
<!-- Generator: Adobe Illustrator 21.0.2, SVG Export Plug-In . SVG Version: 6.00 Build 0)  -->
<svg version="1.1" xmlns="http://www.w3.org/2000/svg" xmlns:xlink="http://www.w3.org/1999/xlink" x="0px" y="0px"
	 viewBox="0 0 277 249" style="enable-background:new 0 0 277 249;" xml:space="preserve">
<g id="Capa_1">
	<g>
		<g>
			<g>
				<path style="fill:#FFFFFF;" d="M9.9,247c20.5-7.3,51.7-10.6,60.1-18.4c8.4-7.8,11.6-28.3,1.6-39c-9.9-10.7-30.5-9.1-39-1.2
					C24.1,196.4,9.9,247,9.9,247z"/>
				<path style="fill:#FFFFFF;" d="M20.6,237.1c16.7-6,42.2-8.7,49.1-15c6.9-6.4,9.5-23.1,1.3-31.9c-8.1-8.7-24.9-7.5-31.9-1
					C32.2,195.7,20.6,237.1,20.6,237.1z"/>
				<path style="fill:#FFFFFF;" d="M32.3,226.3c12.9-4.6,32.5-6.7,37.8-11.6c5.3-4.9,7.3-17.8,1-24.6c-6.2-6.7-19.2-5.7-24.6-0.7
					C41.2,194.4,32.3,226.3,32.3,226.3z"/>
			</g>
			<g>
				<path style="fill:#FFFFFF;" d="M11.4,213.6c14.4-1.8,35.1,0.6,41.7-3.2c6.6-3.8,11.6-16.7,6.7-25.1c-4.9-8.4-18.4-10.4-25.1-6.4
					C28,182.8,11.4,213.6,11.4,213.6z"/>
			</g>
			<g>
				<path style="fill:#FFFFFF;" d="M49.3,219.3c6.9-6.1,18.6-12.3,20.6-16.7c2.1-4.4,0-12.9-5.5-15.5c-5.6-2.6-13.4,1.2-15.5,5.7
					C46.9,197.3,49.3,219.3,49.3,219.3z"/>
			</g>
			<g>
				<path style="fill:#FFFFFF;" d="M238.9,138.2c-67.3,5.2-42.3-36.8-57.3-53.6c-7.9-8.8-49.8,16.9-46.1-63.5
					C167.8-7.4,217.2-4.3,245.7,28C274.3,60.3,271.2,109.7,238.9,138.2z"/>
				<defs>
					<filter id="Adobe_OpacityMaskFilter" filterUnits="userSpaceOnUse" x="86.1" y="18.2" width="161.4" height="162">
						
							<feColorMatrix  type="matrix" values="-1 0 0 0 1  0 -1 0 0 1  0 0 -1 0 1  0 0 0 1 0" color-interpolation-filters="sRGB" result="source"/>
						<feFlood  style="flood-color:white;flood-opacity:1" result="back"/>
						<feBlend  in="source" in2="back" mode="normal"/>
					</filter>
				</defs>
				<mask maskUnits="userSpaceOnUse" x="86.1" y="18.2" width="161.4" height="162" id="SVGID_1_">
					<g style="filter:url(#Adobe_OpacityMaskFilter);">
						<g>
							<path style="fill:none;stroke:#403F41;stroke-width:4.0841;stroke-linecap:round;stroke-miterlimit:10;" d="M158.3,88.1
								c-4.2,3.7-10,4.2-12.8,0.9c-2.8-3.2-1.7-8.9,2.5-12.6c4.2-3.7,10-4.2,12.8-0.9C163.6,78.7,162.5,84.4,158.3,88.1z"/>
							<path style="fill:none;stroke:#403F41;stroke-width:4.0841;stroke-linecap:round;stroke-miterlimit:10;" d="M168.6,99.8
								c-4.2,3.7-10,4.2-12.8,0.9c-2.8-3.2-1.7-8.9,2.5-12.6c4.2-3.7,10-4.2,12.8-0.9C173.9,90.4,172.8,96.1,168.6,99.8z"/>
							<path style="fill:none;stroke:#403F41;stroke-width:4.0841;stroke-linecap:round;stroke-miterlimit:10;" d="M178.9,111.5
								c-4.2,3.7-10,4.2-12.8,0.9c-2.9-3.2-1.7-8.9,2.5-12.6c4.2-3.7,10-4.2,12.8-0.9C184.2,102.1,183.1,107.7,178.9,111.5z"/>
							<path style="fill:none;stroke:#403F41;stroke-width:4.0841;stroke-linecap:round;stroke-miterlimit:10;" d="M189.2,123.1
								c-4.2,3.7-10,4.2-12.8,0.9c-2.9-3.2-1.7-8.9,2.5-12.6c4.2-3.7,10-4.2,12.8-0.9C194.6,113.8,193.4,119.4,189.2,123.1z"/>
						</g>
						<g>
							<path style="fill:none;stroke:#403F41;stroke-width:4.8956;stroke-linecap:round;stroke-miterlimit:10;" d="M152.7,63.1
								c0,0-15.7,33.6-22.1,45.3c-6.5,11.7-29,31.7-29,31.7"/>
							<path style="fill:none;stroke:#403F41;stroke-width:4.8956;stroke-linecap:round;stroke-miterlimit:10;" d="M203,120
								c0,0-35.3,11.4-47.7,16.4c-12.4,5-35,24.8-35,24.8"/>
						</g>
					</g>
				</mask>
				<path style="mask:url(#SVGID_1_);fill:#FFFFFF;" d="M135.5,21.2c-30.8,38.7-19.7,60.3-49.4,103.6c4.6,33.2,6.3,28.7,44,55.3
					c39.4-26.2,83.2-19.3,108.8-41.9C278.6,106.1,170.5-1.1,135.5,21.2z"/>
				<path style="fill:#FFFFFF;" d="M74.1,146.8l-18.1,16c-5.6,4.9-6.9,12.5-2.9,16.9l21.3,24.1c3.9,4.4,11.6,4.1,17.2-0.8l18.1-16
					L74.1,146.8z"/>
				<path style="fill:#FFFFFF;" d="M87.3,117.2l-29.3,25.9c-5.6,4.9-6.1,13.4-1.2,18.9l35.5,40.2c4.9,5.5,13.4,6.1,18.9,1.2
					l29.3-25.9L87.3,117.2z"/>
				<path style="fill:#FFFFFF;" d="M133.6,187.3c-0.8,0.7-2,0.7-2.7-0.1l-54.7-61.9c-0.7-0.8-0.6-1.9,0.2-2.7l2.5-2.2
					c0.8-0.7,2-0.7,2.7,0.1l54.7,61.9c0.7,0.8,0.6,1.9-0.2,2.7L133.6,187.3z"/>
				<path style="fill:#FFFFFF;" d="M125,194.9c-0.8,0.7-2,0.7-2.7-0.1l-54.7-61.9c-0.7-0.8-0.6-1.9,0.2-2.7l2.5-2.2
					c0.8-0.7,2-0.7,2.7,0.1l54.7,61.9c0.7,0.8,0.6,1.9-0.2,2.7L125,194.9z"/>
				<path style="fill:#FFFFFF;" d="M116.4,202.7c-0.8,0.7-2,0.7-2.7-0.1l-54.7-61.9c-0.7-0.8-0.6-1.9,0.2-2.7l2.5-2.2
					c0.8-0.7,2-0.7,2.7,0.1l54.7,61.9c0.7,0.8,0.6,1.9-0.2,2.7L116.4,202.7z"/>
			</g>
		</g>
	</g>
</g>
<g id="guias">
</g>
</svg>
