<?xml version="1.0" encoding="utf-8"?>
<!-- Generator: Adobe Illustrator 21.0.2, SVG Export Plug-In . SVG Version: 6.00 Build 0)  -->
<svg version="1.1" xmlns="http://www.w3.org/2000/svg" xmlns:xlink="http://www.w3.org/1999/xlink" x="0px" y="0px"
	 viewBox="0 0 470 452" style="enable-background:new 0 0 470 452;" xml:space="preserve">
<g id="Capa_1">
	<g>
		<g>
			<path style="fill:#DCDCDC;" d="M346.8,89.1c-2.2-2.2-18.2,12.8-19.7,14.3c-1.2,1.2-34.1,30.9-66.2,53.3l6.3,8.2
				c36.2-24.4,68-50.5,69.5-51.7c1.8-1.5,3.6-2.8,3.1-4.4c-0.3-1.1-1.3-1.2-2.1-0.7c0.8-0.9,1.7-1.6,0.7-2.9
				c-0.4-0.6-1.5-0.6-2.1-0.1c1.1-1.1,1.8-2.4,1.3-3.3c-0.5-0.9-2-1.2-2.8-0.7C335.8,100,348.3,90.6,346.8,89.1z"/>
			<g>
				<path style="fill:#F4F4F4;" d="M260.8,156.7l6.3,8.2c3.9-2.6,7.7-5.2,11.4-7.9l-6.1-8.7C268.6,151.1,264.7,153.9,260.8,156.7z"
					/>
			</g>
			<g>
				<path style="fill:#E5E6E7;" d="M260.8,156.7l6.3,8.2c1.6-1.1,3.2-2.2,4.8-3.3l-2.6-11C266.6,152.6,263.7,154.7,260.8,156.7z"/>
			</g>
			<g>
				<path style="fill:#F4F4F4;" d="M163.3,336.7l23,28.3c2,2.4,5,3.9,8.1,3.8c33.3-0.4,68.9-13,99.3-37.7
					c37.9-30.8,58.9-73.3,60.3-113.5c0.3-7.4-5-13.9-12.3-15.1c-39.6-6.9-85.5,5.1-123.4,35.8c-30.4,24.7-49.9,57-57.2,89.6
					C160.5,331,161.3,334.3,163.3,336.7z"/>
				<path style="fill:#AEAEAE;" d="M201.9,369.4c11.4,14,10.6,34.1-1.2,47.1c-1.6,1.8-1.8,4.5-0.2,6.4l0.5,0.6c1.5,1.8,4,2.3,6,1.3
					c5.7-3,11.1-6.5,16.3-10.7c19.3-15.7,31.1-37.4,34.7-60.2c-18.6,8.7-37.9,13.7-56.6,14.8C201.5,368.9,201.7,369.2,201.9,369.4z"
					/>
				<path style="fill:#ACACAC;" d="M162.2,320.6c-11.4-14-31.2-17.3-46.3-8.4c-2.1,1.2-4.8,0.8-6.3-1.1l-0.5-0.6
					c-1.5-1.8-1.5-4.4,0-6.2c4.1-4.9,8.7-9.6,13.8-13.8c19.3-15.7,42.9-22.8,66-21.6c-12.3,16.4-21.1,34.3-26.1,52.4
					C162.6,321.1,162.4,320.8,162.2,320.6z"/>
				<path style="fill:#AEAEAE;" d="M341.9,202.6c-17.3-3-35.9-2.4-54.4,1.8l53.8,66.2c7.9-17.3,12.2-35.3,12.8-52.9
					C354.3,210.3,349.1,203.8,341.9,202.6z"/>
				<path style="fill:#E5E6E7;" d="M295.6,210c-0.3-0.4-0.5-1-0.4-1.5c0.1-0.5,0.3-1,0.7-1.4c0.4-0.3,1-0.5,1.5-0.4
					c1.1,0.1,1.9,1.2,1.8,2.2c-0.1,0.5-0.3,1-0.7,1.4c-0.4,0.3-1,0.5-1.5,0.4C296.4,210.7,295.9,210.4,295.6,210z"/>
				<path style="fill:#E5E6E7;" d="M302.9,215.8c0.9-0.7,2.1-0.6,2.9,0.3l0,0c0.7,0.9,0.6,2.1-0.3,2.9l0,0c-0.9,0.7-2.1,0.6-2.9-0.3
					l0,0C301.9,217.8,302,216.5,302.9,215.8z"/>
				<path style="fill:#E5E6E7;" d="M331.1,250.5c0.9-0.7,2.1-0.6,2.9,0.3l0,0c0.7,0.9,0.6,2.1-0.3,2.9l0,0c-0.9,0.7-2.1,0.6-2.9-0.3
					l0,0C330.1,252.5,330.2,251.2,331.1,250.5z M324.1,241.8c0.9-0.7,2.1-0.6,2.9,0.3l0,0c0.7,0.9,0.6,2.1-0.3,2.9l0,0
					c-0.9,0.7-2.1,0.6-2.9-0.3l0,0C323.1,243.8,323.2,242.5,324.1,241.8z M317,233.1c0.9-0.7,2.1-0.6,2.9,0.3l0,0
					c0.7,0.9,0.6,2.1-0.3,2.9l0,0c-0.9,0.7-2.2,0.6-2.9-0.3l0,0C316,235.1,316.1,233.8,317,233.1z M310,224.5
					c0.9-0.7,2.1-0.6,2.9,0.3l0,0c0.7,0.9,0.6,2.1-0.3,2.9l0,0c-0.9,0.7-2.1,0.6-2.9-0.3l0,0C309,226.4,309.1,225.2,310,224.5z"/>
				<path style="fill:#E5E6E7;" d="M337.9,262c-0.3-0.4-0.5-1-0.4-1.5c0.1-0.5,0.3-1,0.7-1.4c0.4-0.3,1-0.5,1.5-0.4
					c1.1,0.1,1.9,1.2,1.8,2.2c-0.1,0.5-0.3,1-0.7,1.4c-0.4,0.3-1,0.5-1.5,0.4C338.7,262.7,338.2,262.4,337.9,262z"/>
				<path style="fill:#E5E6E7;" d="M285.9,204.7l54.7,67.3c0.2-0.5,0.4-1,0.7-1.5l-53.8-66.2C286.9,204.5,286.4,204.6,285.9,204.7z"
					/>
				<path style="fill:#E5E6E7;" d="M183.8,268.8c-11.3,15.1-19.7,31.4-25.2,48c1.2,1.1,2.4,2.4,3.5,3.7c0.2,0.3,0.4,0.5,0.6,0.8
					c5-18.1,13.7-36,26.1-52.4C187.2,268.9,185.5,268.8,183.8,268.8z"/>
				<path style="fill:#E5E6E7;" d="M257.9,353.8c-18.6,8.7-37.9,13.7-56.6,14.8c0.2,0.3,0.4,0.5,0.7,0.8c1.1,1.4,2.1,2.8,3,4.2
					c17.4-1.9,35-6.9,52.1-14.8C257.4,357.2,257.7,355.5,257.9,353.8z"/>
				<g>
					<path style="fill:#AEAEAE;" d="M169.4,393.6c-25.1,20.4-74.9,22.6-74.9,22.6s12.3-48.3,37.4-68.7c12.7-10.4,27.7-5.4,38,7.4
						C180.3,367.6,182.1,383.2,169.4,393.6z"/>
					<path style="fill:#D0D0D0;" d="M167.6,387.5c-10.2,8.3-31.5,11.8-39.8,1.6c-8.3-10.2-0.5-30.3,9.7-38.6
						c10.2-8.3,21.5-3.7,29.8,6.5C175.6,367.2,177.8,379.2,167.6,387.5z"/>
					<path style="fill:#F4F4F4;" d="M166.7,375.7c-6.1,4.9-18.8,7.1-23.7,1.1c-4.9-6.1-0.2-18.1,5.9-23c6.1-4.9,11.2-0.9,16.1,5.1
						C169.8,365,172.7,370.8,166.7,375.7z"/>
				</g>
				<g>
					<g>
						<path style="fill:#ACACAC;" d="M161.2,328c-0.7,3.1,0.1,6.3,2.1,8.8l23,28.3c2,2.4,5,3.9,8.1,3.8c2.3,0,4.5-0.1,6.8-0.3
							l-38.5-47.3C162.2,323.6,161.7,325.8,161.2,328z"/>
					</g>
					<g>
						<path style="fill:#E5E6E7;" d="M166,325.3l-5,4.1c0,0.5,0,0.9,0,1.4l5.7-4.6L166,325.3z"/>
						<path style="fill:#E5E6E7;" d="M169.5,329.5l-7.1,5.8c0.2,0.3,0.4,0.6,0.6,0.9l7.2-5.9L169.5,329.5z"/>
						
							<rect x="165" y="336.7" transform="matrix(0.7757 -0.6311 0.6311 0.7757 -174.7396 182.7189)" style="fill:#E5E6E7;" width="9.3" height="1.1"/>
						
							<rect x="168.5" y="341" transform="matrix(0.7757 -0.6311 0.6311 0.7757 -176.669 185.8911)" style="fill:#E5E6E7;" width="9.3" height="1.1"/>
						
							<rect x="172" y="345.3" transform="matrix(0.7757 -0.6311 0.6311 0.7757 -178.5979 189.0623)" style="fill:#E5E6E7;" width="9.3" height="1.1"/>
						
							<rect x="175.5" y="349.6" transform="matrix(0.7757 -0.6311 0.6311 0.7757 -180.5269 192.2336)" style="fill:#E5E6E7;" width="9.3" height="1.1"/>
						
							<rect x="179" y="353.9" transform="matrix(0.7757 -0.6311 0.6311 0.7757 -182.4517 195.3953)" style="fill:#E5E6E7;" width="9.3" height="1.1"/>
						
							<rect x="182.5" y="358.2" transform="matrix(0.7757 -0.6311 0.6311 0.7757 -184.3801 198.5653)" style="fill:#E5E6E7;" width="9.3" height="1.1"/>
						<path style="fill:#E5E6E7;" d="M193.9,359.6l-7.2,5.9c0.2,0.3,0.5,0.5,0.8,0.8l7.1-5.8L193.9,359.6z"/>
						<path style="fill:#E5E6E7;" d="M197.4,363.9l-5.7,4.6c0.5,0.1,0.9,0.2,1.4,0.3l5-4.1L197.4,363.9z"/>
					</g>
				</g>
				<g>
					<path style="fill:#F4F4F4;" d="M350.8,207.8c0.8,1,0.7,2.9-0.5,5.2c-13.1,25.7-41.8,58.9-79.6,89.7
						c-30.4,24.7-61.1,43.3-86.4,53.6c-2.4,1-4.2,1-5,0l0,0l7.1,8.7c2,2.4,5,3.9,8.1,3.8c33.3-0.4,68.9-13,99.3-37.7
						c37.9-30.8,58.9-73.3,60.3-113.5C354.2,214,353,210.5,350.8,207.8z"/>
				</g>
			</g>
			<path style="fill:#E5E6E7;" d="M219.2,290.8c1.6-16.1-12.7-14.8-12.7-14.8l16.2-18.9l-7.1-16.3c-2.8,2.4-5.5,4.8-8.1,7.3l5.6,7.7
				l-13.7,21.7C199.4,277.4,217.7,306.1,219.2,290.8z"/>
			<g>
				<g>
					<g>
						<g>
							<path style="fill:#F4F4F4;" d="M177.4,163.6l91.4-7.7c-0.7,12.3-1.5,28.4,4.3,42.1c-11.5,13.9-56,41.2-72.7,42.1
								C188.9,220.7,180.4,192,177.4,163.6z"/>
						</g>
					</g>
				</g>
				<g>
					<path style="fill:#4F4F4F;" d="M273,198l-72.7,42.1l9.1,16.5l-16.2,19.9c0,0,14.7,30.6,18,15.7c3.5-15.8-10.8-16.3-10.8-16.3
						l18.4-16.8l-5.4-18c0,0,26.3-18.3,53.9-32.4l1,1.2c3.2-1.2,6.5-2.2,9.8-3.2L273,198z"/>
				</g>
				<g>
					<g>
						<g>
							<path style="fill:#DCDCDC;" d="M268.7,155.9c0,0,6.1-92.7-66.5-70.7c0,0-23.2,27.4-24.9,78.4
								C238.6,179.5,268.7,155.9,268.7,155.9z"/>
						</g>
					</g>
					<g>
						<g>
							<path style="fill:#E7AE2E;" d="M262,41.6c6.8,25.9,10.6,62.8-65.4,66.7l-0.9,19.7c0,0-8.6-6.5-9.9,2.8
								c-1.3,9.3,9.3,4.8,9.3,4.8s-8.4,17.4-17.7,28.1c-0.6,0.6-40.4-81,0.9-85.1c0,0,1.8-20.6,30.6-24.1
								C235.3,51.2,248.7,75.4,262,41.6z"/>
						</g>
					</g>
				</g>
				<g>
					<path style="fill:#AEAEAE;" d="M226.4,143c0,0,11.5-3.1,26.8-4.4c0,0,1.9,14.5-11,16.7C227.9,157.5,226.4,143,226.4,143z"/>
				</g>
				<g>
					
						<ellipse transform="matrix(0.9714 -0.2373 0.2373 0.9714 -23.7201 55.2947)" style="fill:#4C4C4C;" cx="217.8" cy="126.2" rx="3.2" ry="7"/>
					
						<ellipse transform="matrix(0.9714 -0.2373 0.2373 0.9714 -20.5493 63.7343)" style="fill:#4C4C4C;" cx="254.4" cy="117.2" rx="3.2" ry="7"/>
				</g>
				<g>
					<g>
						<g>
							<path style="fill:#E5E6E7;" d="M188.2,174.4c37.2,37,68.4,47.2,69.9,47.4c1.9,0.3,5.8,1.1,5.3,2.9c-0.2,0.9-0.9,1.2-2.1,1.2
								c0.8,0.3,1.6,0.7,1.5,1.6c0,0.8-1.4,1.4-2.3,1.4c-0.1,0-0.2,0-0.2,0c0.1,0,0.2,0,0.2,0c0.7,0.1,1.6,0.9,1.5,1.7
								c0,0.9-1.3,1.2-2.2,1.1c0.8,0.3,1.3,0.7,1.3,1.6c-0.1,1.8-3,1.6-5.6,1.3c-4-0.2-40.4-9.8-74.2-52.4L188.2,174.4z"/>
						</g>
					</g>
					<g>
						<g>
							<path style="fill:#DCDCDC;" d="M188.2,174.3c37.5,36.7,68.7,46.7,70.2,46.9c1.9,0.3,5.8,1.1,5.3,2.9
								c-0.2,0.9-0.9,1.2-2.1,1.2c0.8,0.3,1.6,0.7,1.6,1.6c0,0.8-1.4,1.4-2.3,1.4c-0.1,0-0.2,0-0.2,0c0.1,0,0.2,0,0.2,0
								c0.7,0.1,1.6,0.9,1.6,1.6c0,0.9-1.3,1.2-2.2,1.2c0.8,0.3,1.4,0.7,1.3,1.6c-0.1,1.8-3.5,1-5.6,0.5c-1.6-0.4-34.4-10.6-74.6-51
								L188.2,174.3z"/>
						</g>
					</g>
					<g>
						<path style="fill:#F4F4F4;" d="M188.2,174.3l-6.8,7.8c2.9,3,5.8,5.7,8.7,8.4l6.5-8.3C193.8,179.7,191,177.1,188.2,174.3z"/>
					</g>
				</g>
			</g>
			<g>
				<g>
					<path style="fill:#F4F4F4;" d="M261.7,166.5l2.6,2.7l-1.4,4.4c0,0,3.1,25.3-27.1,32.2l-9.1-6.7l7-8
						c25.4,0.2,24.5-15.7,24.5-15.7l-3.9-3.2l0.8-3L261.7,166.5z"/>
				</g>
				<g>
					<path style="fill:#4F4F4F;" d="M261.7,166.5l2.6,2.7l-1.4,4.4c0,0,2.9,23-27.2,29.9l-9.1-6.7l7-8c25.4,0.2,24.7-13.4,24.7-13.4
						l-3.9-3.2l0.8-3L261.7,166.5z"/>
				</g>
			</g>
		</g>
		<g>
			<g>
				<path style="fill:#E7EFEB;" d="M127.5,198.8c-0.3,0-0.5-0.2-0.5-0.5l0-3.1c0-0.3,0.2-0.5,0.5-0.5c0.3,0,0.5,0.2,0.5,0.5l0,3.1
					C128.1,198.6,127.8,198.8,127.5,198.8z"/>
			</g>
			<g>
				<path style="fill:#E7EFEB;" d="M124.8,199.7c-0.1,0-0.3-0.1-0.4-0.2l-2.2-2.2c-0.1-0.1-0.2-0.2-0.2-0.4c0-0.1,0.1-0.3,0.2-0.4
					c0.1-0.1,0.2-0.2,0.4-0.2c0.1,0,0.3,0.1,0.4,0.2l2.2,2.2c0.1,0.1,0.2,0.2,0.2,0.4c0,0.1-0.1,0.3-0.2,0.4
					C125.1,199.7,124.9,199.7,124.8,199.7z"/>
			</g>
			<g>
				<path style="fill:#E7EFEB;" d="M120.4,202.3c-0.3,0-0.5-0.2-0.5-0.5s0.2-0.5,0.5-0.5l3.1,0c0.3,0,0.5,0.2,0.5,0.5
					s-0.2,0.5-0.5,0.5l0,0L120.4,202.3z"/>
			</g>
			<g>
				<path style="fill:#E7EFEB;" d="M122.3,207.3c-0.1,0-0.3-0.1-0.4-0.2c-0.1-0.1-0.2-0.2-0.2-0.4c0-0.1,0.1-0.3,0.2-0.4l2.2-2.2
					c0.1-0.1,0.2-0.2,0.4-0.2c0.1,0,0.3,0.1,0.4,0.2c0.1,0.1,0.2,0.2,0.2,0.4c0,0.1-0.1,0.3-0.2,0.4l-2.2,2.2
					C122.5,207.2,122.4,207.3,122.3,207.3z"/>
			</g>
			<g>
				<path style="fill:#E7EFEB;" d="M127.1,209.4c-0.3,0-0.5-0.2-0.5-0.5l0-3.1c0-0.3,0.2-0.5,0.5-0.5s0.5,0.2,0.5,0.5l0,3.1
					C127.6,209.2,127.3,209.4,127.1,209.4z"/>
			</g>
			<g>
				<path style="fill:#E7EFEB;" d="M132,207.6c-0.1,0-0.3-0.1-0.4-0.2l-2.2-2.2c-0.1-0.1-0.2-0.2-0.2-0.4c0-0.1,0.1-0.3,0.2-0.4
					c0.1-0.1,0.2-0.2,0.4-0.2s0.3,0.1,0.4,0.2l2.2,2.2c0.1,0.1,0.2,0.2,0.2,0.4c0,0.1-0.1,0.3-0.2,0.4
					C132.3,207.6,132.1,207.6,132,207.6z"/>
			</g>
			<g>
				<path style="fill:#E7EFEB;" d="M131.1,202.8c-0.3,0-0.5-0.2-0.5-0.5c0-0.3,0.2-0.5,0.5-0.5l3.1,0c0.3,0,0.5,0.2,0.5,0.5
					c0,0.3-0.2,0.5-0.5,0.5l0,0L131.1,202.8z"/>
			</g>
			<g>
				<path style="fill:#E7EFEB;" d="M130.1,200.1c-0.1,0-0.3-0.1-0.4-0.2c-0.1-0.1-0.2-0.2-0.2-0.4c0-0.1,0.1-0.3,0.2-0.4l2.2-2.2
					c0.1-0.1,0.2-0.2,0.4-0.2s0.3,0.1,0.4,0.2c0.2,0.2,0.2,0.5,0,0.7l-2.2,2.2C130.4,200,130.3,200.1,130.1,200.1z"/>
			</g>
		</g>
		<g>
			<g>
				<path style="fill:#E7EFEB;" d="M385.7,120.5c-0.4,0-0.7-0.3-0.7-0.7V110c0-0.4,0.3-0.7,0.7-0.7c0.4,0,0.7,0.3,0.7,0.7v9.8
					C386.4,120.2,386.1,120.5,385.7,120.5z"/>
			</g>
			<g>
				<path style="fill:#E7EFEB;" d="M380.8,115.6c-0.4,0-0.7-0.3-0.7-0.7c0-0.4,0.3-0.7,0.7-0.7h9.8c0.4,0,0.7,0.3,0.7,0.7
					c0,0.4-0.3,0.7-0.7,0.7H380.8z"/>
			</g>
		</g>
		<g>
			<g>
				<path style="fill:#E7EFEB;" d="M104.8,126.5c-0.3,0-0.6-0.3-0.6-0.6v-8.3c0-0.3,0.3-0.6,0.6-0.6c0.3,0,0.6,0.3,0.6,0.6v8.3
					C105.4,126.3,105.2,126.5,104.8,126.5z"/>
			</g>
			<g>
				<path style="fill:#E7EFEB;" d="M100.7,122.4c-0.3,0-0.6-0.3-0.6-0.6c0-0.3,0.3-0.6,0.6-0.6h8.3c0.3,0,0.6,0.3,0.6,0.6
					c0,0.3-0.3,0.6-0.6,0.6H100.7z"/>
			</g>
		</g>
		<g>
			<g>
				<path style="fill:#E7EFEB;" d="M438.8,180.7c-0.5,0-0.8-0.4-0.8-0.8v-11.9c0-0.5,0.4-0.8,0.8-0.8c0.5,0,0.8,0.4,0.8,0.8v11.9
					C439.6,180.3,439.2,180.7,438.8,180.7z"/>
			</g>
			<g>
				<path style="fill:#E7EFEB;" d="M432.8,174.7c-0.5,0-0.8-0.4-0.8-0.8c0-0.5,0.4-0.8,0.8-0.8h11.9c0.5,0,0.8,0.4,0.8,0.8
					c0,0.5-0.4,0.8-0.8,0.8H432.8z"/>
			</g>
		</g>
		<g>
			<path style="fill:#E7EFEB;" d="M154.6,20.4c-1.6,0-2.9-1.3-2.9-2.9c0-1.6,1.3-2.9,2.9-2.9s2.9,1.3,2.9,2.9
				C157.5,19.1,156.2,20.4,154.6,20.4z M154.6,15.7c-1,0-1.8,0.8-1.8,1.8s0.8,1.8,1.8,1.8c1,0,1.8-0.8,1.8-1.8
				S155.6,15.7,154.6,15.7z"/>
		</g>
		<g>
			<path style="fill:#E7EFEB;" d="M364.6,183c-1.5,0-2.7-1.3-2.6-2.8c0-1.5,1.3-2.7,2.8-2.6c1.5,0,2.7,1.3,2.6,2.8
				C367.3,181.8,366.1,183,364.6,183z M364.7,178.6c-0.9,0-1.7,0.7-1.7,1.6c0,0.9,0.7,1.7,1.6,1.7c0.9,0,1.7-0.7,1.7-1.6
				C366.4,179.4,365.6,178.6,364.7,178.6z"/>
		</g>
		<g>
			<path style="fill:#E7EFEB;" d="M40.4,73.1c-2.2,0-3.9-1.8-3.9-3.9c0-2.2,1.8-3.9,3.9-3.9c2.2,0,3.9,1.8,3.9,3.9
				C44.3,71.4,42.5,73.1,40.4,73.1z M40.4,66.8c-1.3,0-2.4,1.1-2.4,2.4c0,1.3,1.1,2.4,2.4,2.4c1.3,0,2.4-1.1,2.4-2.4
				C42.8,67.9,41.7,66.8,40.4,66.8z"/>
		</g>
		<g>
			<path style="fill:#E7EFEB;" d="M410.6,60.2c-0.6,0-1.2-0.5-1.2-1.2c0-0.6,0.5-1.2,1.2-1.2c0.6,0,1.2,0.5,1.2,1.2
				C411.7,59.7,411.2,60.2,410.6,60.2z M405.9,58.3c-0.2,0-0.5-0.1-0.6-0.2l-0.1-0.1h0l-0.1-0.1c-0.4-0.4-0.4-1.2,0-1.6
				c0.2-0.2,0.5-0.3,0.8-0.3c0.3,0,0.6,0.1,0.8,0.3c0.5,0.4,0.5,1.2,0,1.6C406.5,58.2,406.3,58.3,405.9,58.3z M415.2,58.3
				c-0.3,0-0.6-0.1-0.8-0.3c-0.4-0.4-0.4-1.2,0-1.6c0.2-0.2,0.5-0.3,0.8-0.3c0.3,0,0.6,0.1,0.8,0.3c0.2,0.2,0.3,0.5,0.3,0.8
				c0,0.3-0.1,0.6-0.3,0.8C415.8,58.2,415.5,58.3,415.2,58.3z M404,53.7c-0.6,0-1.2-0.5-1.2-1.2c0-0.6,0.5-1.2,1.2-1.2
				c0.6,0,1.2,0.5,1.2,1.1C405.2,53.2,404.7,53.7,404,53.7z M417.1,53.7c-0.6,0-1.2-0.5-1.2-1.2c0-0.6,0.5-1.2,1.1-1.2
				c0.6,0,1.2,0.5,1.2,1.1C418.3,53.2,417.8,53.7,417.1,53.7z M405.9,49.1c-0.3,0-0.6-0.1-0.8-0.3c-0.4-0.5-0.4-1.2,0-1.6
				c0.2-0.2,0.5-0.3,0.8-0.3c0.3,0,0.6,0.1,0.8,0.3c0.2,0.2,0.3,0.5,0.3,0.8c0,0.3-0.1,0.6-0.3,0.8C406.5,49,406.2,49.1,405.9,49.1z
				 M415.2,49c-0.3,0-0.6-0.1-0.8-0.3c-0.4-0.5-0.5-1.2,0-1.6c0.2-0.2,0.5-0.3,0.8-0.3c0.3,0,0.6,0.1,0.8,0.3c0.4,0.4,0.5,1.2,0,1.6
				C415.8,48.9,415.5,49,415.2,49z M410.6,47.1c-0.6,0-1.2-0.5-1.2-1.1c0-0.6,0.5-1.2,1.2-1.2c0.6,0,1.2,0.5,1.2,1.2
				C411.7,46.6,411.2,47.1,410.6,47.1z"/>
		</g>
		<g>
			<g>
				<path style="fill:#E7EFEB;" d="M30.9,191.2c-0.7,0-1.2-0.5-1.2-1.2c0-0.7,0.5-1.2,1.2-1.2c0.7,0,1.2,0.5,1.2,1.2
					C32.1,190.6,31.6,191.2,30.9,191.2z M26,189.1c-0.2,0-0.5-0.1-0.7-0.2l-0.1-0.1h0l-0.1-0.1c-0.5-0.5-0.5-1.2,0-1.7
					c0.2-0.2,0.5-0.4,0.9-0.4c0.3,0,0.6,0.1,0.9,0.4c0.5,0.5,0.5,1.2,0,1.7C26.6,189,26.3,189.1,26,189.1z M35.8,189.1
					c-0.3,0-0.6-0.1-0.9-0.4c-0.5-0.5-0.5-1.2,0-1.7c0.2-0.2,0.5-0.4,0.9-0.4c0.3,0,0.6,0.1,0.9,0.4c0.2,0.2,0.4,0.5,0.4,0.9
					c0,0.3-0.1,0.6-0.4,0.9C36.5,189,36.1,189.1,35.8,189.1z M24,184.2c-0.7,0-1.2-0.5-1.2-1.2c0-0.7,0.5-1.2,1.2-1.2
					c0.7,0,1.2,0.5,1.2,1.2C25.2,183.7,24.6,184.2,24,184.2z M37.8,184.2c-0.7,0-1.2-0.6-1.2-1.2c0-0.7,0.5-1.2,1.2-1.2
					c0.7,0,1.2,0.5,1.2,1.2C39.1,183.7,38.5,184.2,37.8,184.2z M26,179.3c-0.3,0-0.6-0.1-0.9-0.4c-0.5-0.5-0.5-1.3,0-1.7
					c0.2-0.2,0.5-0.4,0.9-0.4c0.3,0,0.6,0.1,0.9,0.4c0.2,0.2,0.4,0.5,0.4,0.9c0,0.3-0.1,0.6-0.4,0.9C26.6,179.2,26.3,179.3,26,179.3
					z M35.8,179.3c-0.3,0-0.6-0.1-0.9-0.3c-0.5-0.5-0.5-1.3,0-1.7c0.2-0.2,0.5-0.4,0.9-0.4c0.3,0,0.6,0.1,0.9,0.4
					c0.5,0.5,0.5,1.3,0,1.7C36.4,179.2,36.1,179.3,35.8,179.3z M30.9,177.3c-0.7,0-1.2-0.5-1.2-1.2c0-0.7,0.5-1.2,1.2-1.2
					s1.2,0.5,1.2,1.2C32.1,176.7,31.6,177.3,30.9,177.3z"/>
			</g>
		</g>
		<g>
			<g>
				<path style="fill:#E7EFEB;" d="M297.5,12.6c-0.4,0-0.7-0.3-0.7-0.7V7.7c0-0.4,0.3-0.7,0.7-0.7c0.4,0,0.7,0.3,0.7,0.7v4.1
					C298.3,12.3,297.9,12.6,297.5,12.6z"/>
			</g>
			<g>
				<path style="fill:#E7EFEB;" d="M293.9,13.8c-0.2,0-0.4-0.1-0.5-0.2l-2.9-2.9c-0.1-0.1-0.2-0.3-0.2-0.5c0-0.2,0.1-0.4,0.2-0.5
					c0.1-0.1,0.3-0.2,0.5-0.2c0.2,0,0.4,0.1,0.5,0.2l2.9,2.9c0.3,0.3,0.3,0.7,0,1C294.3,13.8,294.1,13.8,293.9,13.8z"/>
			</g>
			<g>
				<path style="fill:#E7EFEB;" d="M288.1,17.3c-0.4,0-0.7-0.3-0.7-0.7c0-0.4,0.3-0.7,0.7-0.7h4.1c0.4,0,0.7,0.3,0.7,0.7
					c0,0.4-0.3,0.7-0.7,0.7H288.1z"/>
			</g>
			<g>
				<path style="fill:#E7EFEB;" d="M290.5,23.8c-0.2,0-0.4-0.1-0.5-0.2c-0.1-0.1-0.2-0.3-0.2-0.5c0-0.2,0.1-0.4,0.2-0.5l2.9-2.9
					c0.1-0.1,0.3-0.2,0.5-0.2c0.2,0,0.4,0.1,0.5,0.2c0.3,0.3,0.3,0.7,0,1l-2.9,2.9C290.9,23.7,290.7,23.8,290.5,23.8z"/>
			</g>
			<g>
				<path style="fill:#E7EFEB;" d="M296.9,26.7c-0.4,0-0.7-0.3-0.7-0.7v-4.1c0-0.4,0.3-0.7,0.7-0.7c0.4,0,0.7,0.3,0.7,0.7V26
					C297.6,26.4,297.3,26.7,296.9,26.7z"/>
			</g>
			<g>
				<path style="fill:#E7EFEB;" d="M303.4,24.3c-0.2,0-0.4-0.1-0.5-0.2l-2.9-2.9c-0.1-0.1-0.2-0.3-0.2-0.5c0-0.2,0.1-0.4,0.2-0.5
					c0.1-0.1,0.3-0.2,0.5-0.2c0.2,0,0.4,0.1,0.5,0.2L304,23c0.1,0.1,0.2,0.3,0.2,0.5c0,0.2-0.1,0.4-0.2,0.5
					C303.8,24.2,303.6,24.3,303.4,24.3z"/>
			</g>
			<g>
				<path style="fill:#E7EFEB;" d="M302.2,17.9c-0.4,0-0.7-0.3-0.7-0.7c0-0.4,0.3-0.7,0.7-0.7h4.1c0.4,0,0.7,0.3,0.7,0.7
					c0,0.4-0.3,0.7-0.7,0.7H302.2z"/>
			</g>
			<g>
				<path style="fill:#E7EFEB;" d="M301,14.3c-0.2,0-0.4-0.1-0.5-0.2c-0.1-0.1-0.2-0.3-0.2-0.5c0-0.2,0.1-0.4,0.2-0.5l2.9-2.9
					c0.1-0.1,0.3-0.2,0.5-0.2c0.2,0,0.4,0.1,0.5,0.2c0.3,0.3,0.3,0.7,0,1l-2.9,2.9C301.4,14.2,301.2,14.3,301,14.3z"/>
			</g>
		</g>
		<g style="opacity:0.5;">
			<path d="M85.4,283.6c-0.6,0-1.1,0.1-1.7,0.2c0-0.2,0-0.4,0-0.6c0-7.7-6.2-13.9-13.9-13.9c-6.6,0-12.2,4.6-13.5,10.9
				c-0.1,0-0.2,0-0.3,0c-6.5,0-11.7,5.2-11.7,11.7c0,6.5,5.2,11.7,11.7,11.7h29.4c5.5,0,10-4.5,10-10S90.9,283.6,85.4,283.6z"/>
		</g>
		<g style="opacity:0.5;">
			<path d="M416.7,299.2c-0.5,0-1,0.1-1.5,0.1c0-0.2,0-0.3,0-0.5c0-6.8-5.5-12.4-12.4-12.4c-5.9,0-10.8,4.1-12.1,9.7
				c-0.1,0-0.2,0-0.3,0c-5.8,0-10.4,4.7-10.4,10.4s4.7,10.4,10.4,10.4h26.2c4.9,0,8.9-4,8.9-8.9
				C425.6,303.1,421.7,299.2,416.7,299.2z"/>
		</g>
		<g style="opacity:0.5;">
			<path d="M452.2,394.3c-0.4,0-0.7,0-1.1,0.1c0.1-0.4,0.1-0.9,0.1-1.4c0-6.1-4.9-11-11-11c-5.8,0-10.6,4.5-11,10.2
				c-0.6-0.1-1.2-0.2-1.9-0.2c-4.4,0-7.9,3.6-7.9,7.9c0,4.4,3.6,7.9,7.9,7.9h24.9c3.7,0,6.8-3,6.8-6.8
				C459,397.4,456,394.3,452.2,394.3z"/>
		</g>
		<g style="opacity:0.5;">
			<path d="M43.2,380.8c-0.3,0-0.7,0-1,0.1c0.1-0.4,0.1-0.9,0.1-1.3c0-5.7-4.7-10.4-10.4-10.4c-5.5,0-10,4.2-10.4,9.6
				c-0.6-0.1-1.2-0.2-1.8-0.2c-4.1,0-7.5,3.3-7.5,7.5c0,4.1,3.3,7.5,7.5,7.5h23.5c3.5,0,6.4-2.9,6.4-6.4
				C49.6,383.7,46.7,380.8,43.2,380.8z"/>
		</g>
		<g style="opacity:0.5;">
			<path d="M323.2,431.4c-0.3,0-0.6,0-0.9,0.1c0-0.4,0.1-0.8,0.1-1.1c0-5.1-4.1-9.2-9.2-9.2c-4.8,0-8.8,3.7-9.1,8.5
				c-0.5-0.1-1-0.2-1.6-0.2c-3.6,0-6.6,2.9-6.6,6.6c0,3.6,2.9,6.6,6.6,6.6h20.7c3.1,0,5.6-2.5,5.6-5.6
				C328.8,433.9,326.3,431.4,323.2,431.4z"/>
		</g>
	</g>
</g>
<g id="guias">
</g>
</svg>
