<?xml version="1.0" encoding="utf-8"?>
<!-- Generator: Adobe Illustrator 21.1.0, SVG Export Plug-In . SVG Version: 6.00 Build 0)  -->
<svg version="1.1" xmlns="http://www.w3.org/2000/svg" xmlns:xlink="http://www.w3.org/1999/xlink" x="0px" y="0px"
	 viewBox="0 0 611 637" style="enable-background:new 0 0 611 637;" xml:space="preserve">
<g id="Capa_1">
	<g>
		<path style="fill:#B35730;" d="M523.9,112.3c34,10.5,59.8,27,61.9,38.8l0,0L556.6,6.8l-105.3,102l0,0
			C460.4,100.8,490.5,102,523.9,112.3z"/>
		<g>
			<ellipse style="fill:#F2F2F2;" cx="122.5" cy="617.9" rx="109.6" ry="11.6"/>
		</g>
		<g>
			<g>
				<ellipse style="fill:#F2F2F2;" cx="469.2" cy="617.9" rx="136.5" ry="11.6"/>
			</g>
			<g>
				<g>
					<path style="fill:#A67C52;" d="M446.1,455.1l-50,161l12.8,4.3l50.8-163.5C455.6,456.6,451,456,446.1,455.1z"/>
				</g>
				<g>
					<path style="fill:#8C6239;" d="M459.6,456.9l-50.8,163.5h6.3l50.7-163.3C464,457.2,461.9,457.1,459.6,456.9z"/>
				</g>
			</g>
			<g>
				<g>
					<path style="fill:#F2F2F2;" d="M556.6,6.8l0.2,118.9c16.6,8.6,27.6,18,28.9,25.5l0,0L556.6,6.8z"/>
					<g>
						<path style="fill:#A15029;" d="M585.8,151.1c-2.1-11.8-27.9-28.2-61.9-38.8c-33.4-10.3-63.4-11.5-72.5-3.5
							c-1.2,1.1-2,2.3-2.5,3.6c-3.7,11.8,24,30.8,61.7,42.5c37.8,11.7,71.3,11.7,75-0.1C586,153.7,586,152.4,585.8,151.1z"/>
					</g>
				</g>
			</g>
			<path style="fill:#E6E6E6;" d="M446.1,455.1l-2.6,8.4l13.2,2.3l4.4,6.7l4.8-15.4C460.7,457.2,453.9,456.6,446.1,455.1z"/>
			<path style="fill:#F2F2F2;" d="M520.3,125.3c-28.8-8.9-53.8-11.1-56.1-4.9l0,0l-92.8,300.3l0,0c2.3-6.2,27.2-4.1,56.1,4.9
				c28.8,8.9,50.6,21.3,49,27.7l0,0L569.3,153l0,0C570.9,146.6,549.1,134.3,520.3,125.3z"/>
			<g>
				
					<ellipse transform="matrix(0.2963 -0.9551 0.9551 0.2963 -119.2354 712.5058)" style="fill:#CCCCCC;" cx="423.9" cy="437.2" rx="12.1" ry="55"/>
			</g>
			<path style="fill:#F2F2F2;" d="M534.7,130.3l-92.8,300.3c21.3,8.1,36,17.5,34.6,22.8l0,0L569.3,153l0,0
				C570.6,147.7,556,138.4,534.7,130.3z"/>
			<g>
				<path style="fill:#808080;" d="M397.4,480.8c-0.4,0-0.8-0.2-1.1-0.5c-0.5-0.6-0.4-1.5,0.2-1.9c17.4-13.8,26-41.3,26.1-41.6
					c0.2-0.7,1-1.1,1.7-0.9c0.7,0.2,1.1,1,0.9,1.7c-0.4,1.2-8.9,28.6-27,42.9C398,480.7,397.7,480.8,397.4,480.8z"/>
			</g>
		</g>
		<g>
			<g>
				<path style="fill:#FDDBBB;" d="M296.8,506c0,0,17.7,2.6,16.9-10.7c-0.8-13.3-17.1-5.6-17.1-5.6L296.8,506z"/>
				<polygon style="fill:#F5F5F5;" points="294,488.8 298.3,488.2 297.9,506.5 293.6,506.4 				"/>
				<path style="fill:#414042;" d="M216.2,402.9c0,0-18.4,106.2,78.8,105.2l1.1-20.7c0,0-67.4,1.1-62.2-81.3L216.2,402.9z"/>
				
					<ellipse transform="matrix(0.9933 -0.1154 0.1154 0.9933 -56.2031 36.2054)" style="fill:#6D6E71;" cx="284.5" cy="503.3" rx="1.9" ry="1.9"/>
				
					<ellipse transform="matrix(0.9934 -0.115 0.115 0.9934 -55.9931 36.7949)" style="fill:#6D6E71;" cx="290.9" cy="503.7" rx="1.9" ry="1.9"/>
			</g>
			<g>
				<path style="fill:#FDDBBB;" d="M80.6,375.1c0,0,19.4-134.4,102.5-124.5c106,12.7,46.9,161.5,46.9,161.5L80.6,375.1z"/>
				<path style="fill:#4F423A;" d="M288.5,231.2c0,0,4,108.7-146.2,49.7l-10.7,30c0,0-9.2-18.1-16.3-4.2c-8.1,16,9.4,15.3,9.4,15.3
					s-24.7,38.1-43.5,48.9c-1.4-3-14.7-163.4,50.3-139.2c0,0,11.6-30.7,56-25.4C249.7,213.7,239.6,264.4,288.5,231.2z"/>
				
					<ellipse transform="matrix(0.2198 -0.9755 0.9755 0.2198 -190.0612 406.0892)" style="fill:#4F423A;" cx="158.9" cy="321.9" rx="10.9" ry="5.6"/>
				
					<ellipse transform="matrix(0.2198 -0.9755 0.9755 0.2198 -151.209 484.4119)" style="fill:#4F423A;" cx="227.3" cy="336.7" rx="10.9" ry="5.6"/>
				<path style="fill:#EB7D86;" d="M209.8,362.9c0,0-27.2-9.7-45.8-9.8c0,0-8.7,21.9,17.8,28.4C208.1,388,209.8,362.9,209.8,362.9z"
					/>
			</g>
			<path style="fill:#414042;" d="M199.1,518.7l-0.8,50.1l-19.1,39.2c0,0,14.9-13.5,25.1,1.4c10.2,14.9-35,8.4-35,8.4l16.7-50.9
				l-10.4-37.7c-36.3-5.6-33.6-2.8-91.3-18.4l-14,42.1L36,588.6c0,0,20.1,2.2,15.1,20c-6.5,23.3-23.7-19.8-23.7-19.8L58,547.1
				l4.9-54.8C114.1,505.6,124.5,506.5,199.1,518.7z"/>
			<path style="fill:#414042;" d="M127.8,381l32.8,72.1l59.9-50.4L234,406l-34.8,112.7c0,0-15.2,1.1-42.5-3.1
				c-11.5-1.5-28.7-5.3-28.7-5.3c-17.5-4.2-40.9-9.8-65.1-18l15.1-122.2L127.8,381z"/>
			<g>
				<g>
					<polygon style="fill:#F5F5F5;" points="220.6,402.8 160.6,453.1 127.8,381 					"/>
				</g>
			</g>
			<g>
				<g>
					<polygon style="fill:#6D6E71;" points="220.6,402.8 215,429.1 199.5,428.6 196.8,449 160.6,453.1 					"/>
				</g>
			</g>
			<g>
				<g>
					<polygon style="fill:#6D6E71;" points="160.6,453.1 132.1,429.8 136.7,415.6 122.5,406.3 127.8,381 					"/>
				</g>
			</g>
			<g>
				<g>
					<polygon style="fill:#414042;" points="185.3,408 182.2,399.5 169.7,396.1 163,403.8 166.6,410.9 153.2,436.9 160.6,453.1 
						176.6,439.8 177.7,413.8 					"/>
				</g>
			</g>
			
				<ellipse transform="matrix(2.325992e-02 -0.9997 0.9997 2.325992e-02 -309.9466 611.6837)" style="fill:#6D6E71;" cx="158.1" cy="464.5" rx="4.4" ry="4.4"/>
			
				<ellipse transform="matrix(2.353639e-02 -0.9997 0.9997 2.353639e-02 -334.3863 625.0345)" style="fill:#6D6E71;" cx="152.8" cy="483.7" rx="4.4" ry="4.4"/>
			<g>
				<path style="fill:#FDDBBB;" d="M7.6,248c0,0-2.9-16.3,10.4-16.4c11.8-0.1,5.9,17.4,5.9,17.4L7.6,248z"/>
				<polygon style="fill:#F5F5F5;" points="24.5,251.5 25.3,247.4 6.7,246.9 6.6,251.2 				"/>
				<path style="fill:#414042;" d="M75.3,394.9c0,0-79.3-19.2-69.9-145.2l20.8-0.1c0,0-9.1,96.2,51.8,120.6L75.3,394.9z"/>
				
					<ellipse transform="matrix(0.1628 -0.9867 0.9867 0.1628 -248.8838 227.5536)" style="fill:#6D6E71;" cx="9.6" cy="260.4" rx="1.9" ry="1.9"/>
				
					<ellipse transform="matrix(0.1623 -0.9867 0.9867 0.1623 -242.5953 222.1761)" style="fill:#6D6E71;" cx="9.6" cy="254" rx="1.9" ry="1.9"/>
			</g>
		</g>
		<g>
			<g>
				<path style="fill:#B35730;" d="M395.1,497.3c0.5,9.2-5.7,17-14.9,17.5c-9.2,0.5-16.3-6.6-16.8-15.8c-0.7-11.6,13-17.2,9.1-28
					C384.2,475.3,394.4,484.4,395.1,497.3z"/>
			</g>
			<g>
				
					<ellipse transform="matrix(0.9984 -5.606300e-02 5.606300e-02 0.9984 -27.5325 21.9498)" style="fill:#FFDE75;" cx="377.4" cy="501.7" rx="10.4" ry="10.4"/>
			</g>
			<g>
				<g>
					<polygon style="fill:#A67C52;" points="306.6,492.8 377.8,500.5 377.3,505 306.3,498.4 					"/>
				</g>
				<g>
					<path style="fill:#B35730;" d="M376.9,507.6c-3.3-0.4-7.4-2.8-7.1-5.8c0.3-3,4.8-4.5,8.1-4.2c3.3,0.4,5.5,2.6,5.2,5.6
						C382.8,506.2,380.2,508,376.9,507.6z"/>
				</g>
			</g>
		</g>
	</g>
</g>
<g id="guias">
</g>
</svg>
